<?xml version="1.0" encoding="UTF-8" standalone="no"?>
<!-- Svg Vector Icons : http://www.onlinewebfonts.com/icon -->

<svg
   xmlns:dc="http://purl.org/dc/elements/1.1/"
   xmlns:cc="http://creativecommons.org/ns#"
   xmlns:rdf="http://www.w3.org/1999/02/22-rdf-syntax-ns#"
   xmlns:svg="http://www.w3.org/2000/svg"
   xmlns="http://www.w3.org/2000/svg"
   xmlns:sodipodi="http://sodipodi.sourceforge.net/DTD/sodipodi-0.dtd"
   xmlns:inkscape="http://www.inkscape.org/namespaces/inkscape"
   version="1.1"
   x="0px"
   y="0px"
   viewBox="0 0 1000 1000"
   enable-background="new 0 0 1000 1000"
   xml:space="preserve"
   id="svg16"
   sodipodi:docname="icon.svg"
   inkscape:version="0.92.5 (2060ec1f9f, 2020-04-08)"
   inkscape:export-filename="/home/claude/.local/share/cinnamon/extensions/SanitizeXsessionErrors@claudiux/icon.png"
   inkscape:export-xdpi="4.6079998"
   inkscape:export-ydpi="4.6079998"><defs
   id="defs20" /><sodipodi:namedview
   pagecolor="#ffffff"
   bordercolor="#666666"
   borderopacity="0"
   objecttolerance="10"
   gridtolerance="10"
   guidetolerance="10"
   inkscape:pageopacity="0"
   inkscape:pageshadow="2"
   inkscape:window-width="1878"
   inkscape:window-height="980"
   id="namedview18"
   showgrid="false"
   inkscape:zoom="0.236"
   inkscape:cx="-1338.9831"
   inkscape:cy="500"
   inkscape:window-x="0"
   inkscape:window-y="36"
   inkscape:window-maximized="1"
   inkscape:current-layer="g12" />
<metadata
   id="metadata2"> Svg Vector Icons : http://www.onlinewebfonts.com/icon <rdf:RDF><cc:Work
     rdf:about=""><dc:format>image/svg+xml</dc:format><dc:type
       rdf:resource="http://purl.org/dc/dcmitype/StillImage" /></cc:Work></rdf:RDF></metadata>
<g
   id="g14"><g
     transform="matrix(0.1,0,0,-0.1,0,511)"
     id="g12"><path
       d="m 3395.7,4584.9 c -5.9,-19.8 -25.7,-96.9 -43.5,-174 -98.9,-411.2 -355.9,-682.1 -759.2,-792.8 -67.2,-19.8 -120.6,-41.5 -120.6,-49.4 0,-7.9 73.2,-37.6 164.1,-65.2 389.5,-118.6 605,-355.9 713.7,-784.9 25.7,-96.9 49.4,-179.9 55.4,-185.8 5.9,-5.9 29.7,67.2 53.4,162.1 108.7,448.8 332.1,690 747.3,816.5 79.1,23.7 140.4,49.4 134.4,59.3 -4,7.9 -83,37.6 -172,65.2 -389.5,122.6 -606.9,369.7 -709.7,800.7 -45.6,191.8 -49.5,199.7 -63.3,148.3 z"
       id="path4"
       inkscape:connector-curvature="0"
       style="fill:#ffdd55" /><path
       d="m 6373,2661.3 c -235.3,-33.6 -373.6,-81.1 -688,-237.2 -514,-255 -729.5,-304.5 -1122.9,-259 -990.5,116.6 -1468.9,7.9 -1739.8,-387.5 -122.6,-181.9 -162.1,-344 -160.1,-658.3 2,-316.3 49.4,-545.7 217.5,-1073.5 209.6,-652.4 211.5,-824.4 7.9,-1449.1 -150.3,-460.6 -195.7,-644.5 -211.5,-867.9 -43.5,-648.4 316.3,-1053.7 1061.7,-1188.2 94.9,-17.8 346,-35.6 571.3,-41.5 l 401.3,-11.9 -21.7,41.5 c -33.6,61.3 -233.3,308.4 -405.3,498.2 -83,92.9 -179.9,223.4 -213.5,292.6 -57.3,114.7 -61.3,144.3 -77.1,415.2 -17.8,340 -29.7,389.5 -158.2,628.7 -57.3,104.8 -106.8,227.4 -118.6,294.6 -39.5,219.4 47.4,407.2 237.2,512.1 199.7,106.7 444.8,89 652.4,-51.4 l 87,-57.3 -13.8,75.1 c -122.6,705.8 -116.6,1130.8 17.8,1423.4 94.9,211.5 247.1,322.2 434.9,320.3 55.4,0 116.6,-7.9 138.4,-15.8 31.6,-13.8 45.5,0 81.1,75.1 79.1,168 189.8,239.2 369.7,239.2 132.5,0 241.2,-61.3 322.2,-179.9 l 61.3,-90.9 55.4,39.5 c 67.2,51.4 261,69.2 346,33.6 87,-35.6 225.4,-193.7 286.7,-328.2 l 53.4,-116.6 132.5,-2 c 381.6,-2 612.9,-334.1 790.8,-1134.8 108.7,-492.3 126.5,-662.3 114.7,-1077.5 -13.8,-508.1 -71.2,-753.2 -310.4,-1374 -75.1,-189.8 -142.3,-369.7 -148.3,-399.4 l -13.8,-55.4 h 286.7 c 573.3,0 818.5,75.1 970.7,294.6 85,120.6 126.5,253 207.6,674.1 142.3,717.7 278.8,1022.1 638.6,1437.3 140.4,160.1 227.4,312.4 296.6,504.1 201.7,571.3 51.4,1287 -357.9,1698.2 -162.1,162.1 -320.3,245.1 -571.3,298.5 -498.2,104.8 -792.8,302.5 -1103.2,741.4 -73.1,100.8 -168,217.5 -213.5,255 -108.7,92.9 -326.2,193.7 -502.1,233.3 -176.4,39.6 -524.3,55.4 -690.4,31.7 z"
       id="path6"
       inkscape:connector-curvature="0"
       style="fill:#ff9955" /><path
       d="m 1280.3,1125.1 c -5.9,-7.9 -27.7,-90.9 -49.4,-185.8 C 1143.9,573.6 1039.1,375.9 829.6,180.1 685.2,45.7 525.1,-39.3 272,-116.4 c -94.9,-27.7 -172,-59.3 -172,-69.2 0,-9.9 77.1,-41.5 174,-69.2 452.7,-138.4 737.4,-393.4 879.8,-790.8 25.7,-75.1 63.3,-207.6 83,-292.6 17.8,-83 41.5,-156.2 49.4,-162.1 7.9,-5.9 39.5,90.9 67.2,211.5 75.1,318.3 177.9,519.9 355.9,695.9 164.1,164.1 322.3,255 575.3,330.2 96.9,27.7 179.9,61.3 183.9,73.1 4,11.9 -71.2,43.5 -168,73.2 -531.8,162.1 -810.6,464.6 -947,1028 -55.4,231.3 -57.4,239.2 -73.2,213.5 z"
       id="path8"
       inkscape:connector-curvature="0"
       style="fill:#ffdd55" /><path
       d="m 5629.7,721.8 c -75.1,-43.5 -118.6,-176 -120.6,-367.7 -2,-100.8 -5.9,-183.9 -11.9,-183.9 -7.9,0 -23.7,31.6 -37.6,71.2 -13.8,39.5 -57.3,106.8 -94.9,148.3 -124.6,136.4 -274.8,120.6 -353.9,-37.6 -85,-168 -79.1,-438.9 21.7,-1051.8 94.9,-567.4 102.8,-885.7 21.7,-964.8 -29.7,-29.7 -35.6,-29.7 -87,0 -29.7,17.8 -90.9,89 -138.4,158.2 -110.7,164.1 -231.3,284.7 -330.2,332.1 -150.3,73.1 -371.7,41.5 -425.1,-61.3 -19.8,-33.6 -9.9,-61.3 57.3,-172 156.2,-261 249.1,-551.6 270.9,-860 15.8,-221.4 47.4,-300.5 193.7,-468.6 470.5,-543.7 595.1,-800.7 614.8,-1263.3 l 5.9,-170 136.4,-63.3 c 450.7,-211.5 1037.9,-211.5 1538.1,-5.9 l 142.4,61.3 11.9,340 c 17.8,460.6 35.6,547.6 239.2,1073.5 98.8,257 168,502.2 203.6,729.5 55.4,369.7 4,1043.8 -112.7,1472.9 -128.5,462.6 -284.7,691.9 -474.5,691.9 -85,0 -130.5,-41.5 -164.1,-150.2 l -21.4,-76.9 -7.9,69.2 c -21.8,233.3 -122.6,484.4 -219.5,551.6 -134.4,92.9 -280.7,65.2 -340,-65.2 -19.8,-43.5 -37.6,-102.8 -39.5,-130.5 0,-33.6 -11.9,-15.8 -35.6,59.3 -49.4,154.2 -89,223.4 -170,294.6 -55.4,47.4 -89,61.3 -154.2,61.3 -45.5,-0.1 -98.9,-10 -118.6,-21.9 z"
       id="path10"
       inkscape:connector-curvature="0"
       style="fill:#b7c8c4" /></g></g>
</svg>