<?xml version="1.0" encoding="UTF-8" standalone="no"?>
<svg
   xmlns:dc="http://purl.org/dc/elements/1.1/"
   xmlns:cc="http://creativecommons.org/ns#"
   xmlns:rdf="http://www.w3.org/1999/02/22-rdf-syntax-ns#"
   xmlns:svg="http://www.w3.org/2000/svg"
   xmlns="http://www.w3.org/2000/svg"
   xmlns:sodipodi="http://sodipodi.sourceforge.net/DTD/sodipodi-0.dtd"
   xmlns:inkscape="http://www.inkscape.org/namespaces/inkscape"
   height="24px"
   viewBox="0 0 24 24"
   width="24px"
   version="1.1"
   id="svg6"
   sodipodi:docname="close_black_24dp.svg"
   inkscape:version="0.92.5 (2060ec1f9f, 2020-04-08)">
  <metadata
     id="metadata12">
    <rdf:RDF>
      <cc:Work
         rdf:about="">
        <dc:format>image/svg+xml</dc:format>
        <dc:type
           rdf:resource="http://purl.org/dc/dcmitype/StillImage" />
      </cc:Work>
    </rdf:RDF>
  </metadata>
  <defs
     id="defs10" />
  <sodipodi:namedview
     pagecolor="#ffffff"
     bordercolor="#666666"
     borderopacity="1"
     objecttolerance="10"
     gridtolerance="10"
     guidetolerance="10"
     inkscape:pageopacity="0"
     inkscape:pageshadow="2"
     inkscape:window-width="640"
     inkscape:window-height="485"
     id="namedview8"
     showgrid="false"
     inkscape:zoom="9.8333333"
     inkscape:cx="12"
     inkscape:cy="12"
     inkscape:window-x="824"
     inkscape:window-y="146"
     inkscape:window-maximized="0"
     inkscape:current-layer="svg6" />
  <path
     d="m 19.20339,9.4608475 -1.41,-1.41 -5.59,5.5899995 -5.5900002,-5.5899995 -1.41,1.41 5.5900002,5.5899995 -5.5900002,5.59 1.41,1.41 5.5900002,-5.59 5.59,5.59 1.41,-1.41 -5.59,-5.59 z"
     id="path4"
     inkscape:connector-curvature="0" />
  <g
     transform="matrix(0.6440678,0,0,0.6440678,4.5245762,-1.4071185)"
     id="g12">
    <g
       id="g10">
      <polygon
         points="11.97,6.3 10.95,9.19 13.05,9.19 12.03,6.3 "
         id="polygon6" />
      <path
         inkscape:connector-curvature="0"
         d="m 12,15 c 3.31,0 6,-2.69 6,-6 C 18,5.69 15.31,3 12,3 8.69,3 6,5.69 6,9 c 0,3.31 2.69,6 6,6 z M 11.37,5 h 1.25 l 2.63,7 H 14.04 L 13.41,10.21 H 10.58 L 9.96,12 H 8.74 Z"
         id="path8" />
    </g>
  </g>
</svg>
