<?xml version="1.0" encoding="UTF-8" standalone="no"?>
<!-- Created with Inkscape (http://www.inkscape.org/) -->
<svg xmlns="http://www.w3.org/2000/svg" height="128" width="128" version="1.1" viewBox="0 0 128 128">
 <path d="m51.566 126.54c-20.851-1.56-35.244-6.35-43.441-14.48-8.0126-7.94-10.021-18.278-6.371-32.792 2.4536-9.757 8.262-22.111 18.767-39.922 7.471-12.666 12.472-19.535 18.898-25.96 6.682-6.6796 12.422-10.167 18.974-11.526 2.842-0.5896 7.846-0.6348 10.684-0.096 10.157 1.9268 20.04 9.9529 30.142 24.477 7.1044 10.215 18.092 29.788 22.528 40.13 0.865 2.0168 2.2368 5.6676 3.0484 8.1132 6.4078 19.31 3.232 32.78-9.7828 41.492-8.2664 5.5332-18.773 8.5944-35.504 10.344-3.4002 0.3556-23.958 0.517-27.943 0.2196zm17.449-15.682c1.5148-0.18 2.3788-0.4038 2.5836-0.6682 0.5422-0.7004 2.7912-6.2548 4.2386-10.468 6.5864-19.172 7.3658-39.192 2.2954-58.968-1.4312-5.582-1.7092-6.3534-2.323-6.4456-0.436-0.066-0.5548 0.259-1.0654 2.908-0.854 4.4314-2.6648 11.673-4.1144 16.455-6.1472 20.28-14.891 36.775-25.808 48.684-2.3852 2.6018-2.5256 2.213 1.5604 4.3216 4.0976 2.1146 9.475 3.7966 13.656 4.2712 1.9046 0.2162 6.814 0.166 8.977-0.09zm30.334-21.351c7.4352-14.836 4.8688-32.666-6.3964-44.438-2.2138-2.3134-6.0478-5.651-6.2544-5.4444-0.046 0.046 0.5978 1.8432 1.4302 3.9942 4.1214 10.651 7.0092 21.573 8.3866 31.719 0.4518 3.327 0.5522 5.3138 0.56 11.07 0.02 8.0948-0.132 7.9 2.274 3.0992zm-68.227-10.8c6.2816-4.1858 10.588-7.7144 15.907-13.035 7.7952-7.7978 13.217-15.253 17.939-24.67 1.5716-3.1334 3.7324-8.113 3.5846-8.2608l-2.621-0.3998-2.8838 2.267c-8.9586 7.0424-20.295 13.637-30.121 17.521l-3.4666 1.3704-0.8898 1.9464c-2.752 6.0206-4.0484 13.22-3.4604 19.216 0.3228 3.2918 1.0188 7.0514 1.3054 7.0514 0.106 0 2.2248-1.3532 4.7068-3.007z" fill="#ffffff"/>
</svg>
