<?xml version="1.0" encoding="UTF-8"?>
<svg width="128" height="128" version="1.1" viewBox="0 0 128 128" xmlns="http://www.w3.org/2000/svg">
 <path d="m64 0c-5.698 13.969-9.158 23.118-15.5 36.672 3.888 4.122 8.668 8.906 16.422 14.328-8.336-3.43-14.018-6.864-18.266-10.438-8.118 16.94-20.846 41.062-46.656 87.438 20.28-11.708 36.004-18.932 50.656-21.688-0.628-2.702-0.962-5.638-0.938-8.688l0.016-0.64c0.322-12.996 7.084-22.99 15.094-22.312 8.008 0.678 14.244 11.768 13.922 24.766-0.062 2.448-0.346 4.8-0.828 6.984 14.494 2.836 30.068 10.026 50.078 21.578-3.946-7.264-7.48-13.81-10.844-20.048-5.298-4.106-10.822-9.448-22.094-15.234 7.748 2.014 13.3 4.342 17.624 6.938-34.196-63.67-36.96-72.136-48.686-99.656v-1.8e-4z" fill="#ffffff"/>
</svg>
