<?xml version="1.0" encoding="UTF-8"?>
<svg width="128" height="128" version="1.1" viewBox="0 0 128 128" xmlns="http://www.w3.org/2000/svg">
 <g fill="#ffffff">
  <path d="m66.582 68.093c-2.1248 0.02844 0.39964 1.0922 3.1744 1.5203 0.76941-0.60017 1.4606-1.2032 2.0807-1.792-1.7251 0.42239-3.483 0.43235-5.255 0.27164"/>
  <path d="m77.984 65.25c1.27-1.7479 2.1916-3.6593 2.5173-5.6362-0.28586 1.408-1.0467 2.624-1.7692 3.9096-3.9722 2.5016-0.37546-1.4848-0.0028-3.0023-4.2694 5.3802-0.58879 3.2255-0.74523 4.7288"/>
  <path d="m82.198 54.294c0.25884-3.8271-0.75234-2.6154-1.0922-1.1577 0.39537 0.20764 0.70968 2.6993 1.0922 1.1577"/>
  <path d="m58.521 1.9869c1.1349 0.20195 2.4519 0.35839 2.2627 0.63003 1.2458-0.27448 1.526-0.52195-2.2627-0.63003"/>
  <path d="m60.785 2.6169-0.79786 0.1664 0.74381-0.068266 0.05404-0.098132"/>
  <path d="m96.155 54.834c0.12799 3.436-1.0026 5.1057-2.0252 8.0582l-1.8389 0.91448c-1.5033 2.9212 0.14933 1.8545-0.92727 4.177-2.3495 2.0864-7.1195 6.5265-8.647 6.9332-1.1164-0.02418 0.75519-1.317 0.99981-1.8218-3.1416 2.1561-2.5216 3.2369-7.3272 4.5496l-0.13938-0.31431c-11.847 5.575-28.305-5.4712-28.088-20.541-0.12515 0.95572-0.35982 0.71679-0.6215 1.1008-0.61155-7.7524 3.5811-15.539 10.652-18.723 6.9162-3.4218 15.024-2.0195 19.975 2.6012-2.7192-3.564-8.1364-7.3428-14.552-6.993-6.2875 0.1024-12.171 4.0974-14.134 8.4365-3.2199 2.0266-3.5953 7.8164-4.9976 8.8774-1.8901 13.881 3.5512 19.875 12.757 26.931 1.445 0.97563 0.40675 1.125 0.60017 1.8673-3.0577-1.4307-5.8566-3.5925-8.1606-6.2392 1.2231 1.7877 2.5415 3.5256 4.2467 4.8909-2.8856-0.97421-6.7384-6.9873-7.8605-7.2319 4.9706 8.9001 20.164 15.609 28.124 12.279-3.6835 0.13653-8.3611 0.07538-12.497-1.4535-1.7422-0.89456-4.1016-2.7448-3.6792-3.0904 10.86 4.0547 22.075 3.0691 31.47-4.4614 2.3921-1.8631 5.0033-5.0303 5.7585-5.073-1.1363 1.7095 0.19484 0.82203-0.67839 2.331 2.3779-3.8414-1.0368-1.5644 2.4604-6.6331l1.2914 1.7778c-0.48355-3.1914 3.9608-7.0626 3.5086-12.106 1.0197-1.5417 1.1363 1.6611 0.0555 5.2081 1.5004-3.9352 0.3968-4.5681 0.78079-7.8164 0.41386 1.0922 0.96425 2.2513 1.2444 3.4047-0.97848-3.8044 0.9998-6.4042 1.4919-8.6157-0.48639-0.21333-1.509 1.681-1.745-2.8103 0.0356-1.9513 0.54471-1.0226 0.73955-1.5033-0.38115-0.22044-1.3866-1.7166-1.9968-4.5852 0.43946-0.67554 1.1833 1.7479 1.7863 1.846-0.38826-2.2798-1.0553-4.0191-1.0837-5.7699-1.7635-3.6835-0.62435 0.49208-2.0522-1.5815-1.8773-5.8509 1.5559-1.3582 1.7891-4.0149 2.8416 4.1173 4.4614 10.503 5.2081 13.147-0.56888-3.2241-1.4862-6.3487-2.6083-9.3709 0.86612 0.36551-1.3923-6.6317 1.125-1.9982-2.6866-9.8772-11.489-19.107-19.588-23.436 0.98843 0.90594 2.2385 2.0437 1.792 2.2229-4.0305-2.3964-3.3223-2.5856-3.8997-3.5982-3.2782-1.3354-3.4972 0.10951-5.666 0.00284-6.1866-3.2824-7.3784-2.934-13.071-4.9877l0.25884 1.2117c-4.0974-1.3653-4.7743 0.51484-9.2016 0.00284-0.2688-0.20906 1.4194-0.7623 2.8103-0.96283-3.9622 0.52337-3.7774-0.78221-7.6543 0.14364 0.9543-0.66986 1.9669-1.115 2.9852-1.6839-3.2298 0.19626-7.714 1.8801-6.3302 0.34702-5.2693 2.3523-14.629 5.6532-19.881 10.578l-0.16498-1.1036c-2.4064 2.8885-10.494 8.6271-11.139 12.372l-0.64426 0.14933c-1.2501 2.1205-2.0622 4.5226-3.0549 6.7028-1.637 2.7918-2.4007 1.0752-2.1674 1.5132-3.2213 6.5307-4.8241 12.018-6.2051 16.52 0.98416 1.472 0.02418 8.8632 0.39537 14.778-1.6156 29.218 20.505 57.583 44.686 64.131 3.5441 1.27 8.8134 1.2245 13.296 1.3497-5.2877-1.5132-5.9704-0.8007-11.124-2.5969-3.7162-1.7522-4.5297-3.7503-7.1636-6.0358l1.0425 1.8418c-5.1626-1.8275-3.0023-2.2613-7.2034-3.5911l1.1136-1.4521c-1.6739-0.12799-4.433-2.8188-5.1868-4.3135l-1.8318 0.0725c-2.1987-2.7107-3.372-4.6691-3.2853-6.1866l-0.59164 1.0553c-0.66986-1.1506-8.0937-10.18-4.2424-8.0781-0.71537-0.65137-1.6668-1.0624-2.6979-2.9383l0.78363-0.89456c-1.8503-2.385-3.4104-5.4413-3.291-6.4596 0.98843 1.334 1.6739 1.5843 2.3537 1.8133-4.6805-11.611-4.9436-0.63857-8.4863-11.818l0.74808-0.05973c-0.57315-0.86896-0.92443-1.8062-1.3852-2.7292l0.32711-3.2497c-3.3678-3.8911-0.9415-16.562-0.45368-23.509 0.33422-2.8245 2.8117-5.8324 4.6933-10.55l-1.1463-0.19626c2.193-3.8229 12.518-15.358 17.302-14.767 2.3168-2.9098-0.46079-0.01138-0.91448-0.74239 5.0901-5.2664 6.69-3.7205 10.125-4.6691 3.702-2.1973-3.1786 0.85901-1.4236-0.83768 6.4042-1.6341 4.5368-3.7176 12.889-4.5468 0.88176 0.50062-2.0437 0.77368-2.7776 1.4236 5.3332-2.6112 16.88-2.0153 24.384 1.4478 8.6996 4.0689 18.48 16.091 18.867 27.402l0.43946 0.11804c-0.22186 4.497 0.68835 9.698-0.89172 14.474l1.0681-2.2627"/>
  <path d="m43.385 71.009-0.30008 1.489c1.398 1.8986 2.5073 3.9551 4.2894 5.4342-1.2828-2.5016-2.2343-3.5356-3.9893-6.9233"/>
  <path d="m46.686 70.881c-0.73954-0.81919-1.1747-1.8034-1.6668-2.7818 0.46933 1.7223 1.4307 3.2028 2.3225 4.7103l-0.65563-1.9285"/>
  <path d="m105.11 58.181-0.31146 0.78505c-0.57173 4.0646-1.8105 8.0866-3.7048 11.817 2.0935-3.9352 3.4431-8.2402 4.0163-12.602"/>
  <path d="m58.943 0.96719c1.435-0.52479 3.5299-0.28871 5.0573-0.6343-1.9882 0.1664-3.9665 0.26595-5.9192 0.51484l0.86185 0.11946"/>
  <path d="m8.4967 27.793c0.33137 3.0634-2.304 4.2538 0.5831 2.2314 1.5502-3.4901-0.60301-0.96283-0.5831-2.2314"/>
  <path d="m5.0997 41.978c0.66701-2.0437 0.78648-3.2696 1.041-4.4543-1.8389 2.3523-0.84763 2.8544-1.041 4.4543"/>
 </g>
</svg>
