<?xml version="1.0" encoding="UTF-8"?>
<!-- Created with Inkscape (http://www.inkscape.org/) -->
<svg width="190" height="190" version="1.1" xmlns="http://www.w3.org/2000/svg" xmlns:xlink="http://www.w3.org/1999/xlink">
 <defs>
  <linearGradient id="linearGradient3538" x1="61.429" x2="116.43" y1="362.14" y2="408.57" gradientTransform="matrix(1.658 0 0 1.658 248.93 -305.84)" gradientUnits="userSpaceOnUse">
   <stop stop-color="#c7f994" offset="0"/>
   <stop stop-color="#87cf3e" offset="1"/>
  </linearGradient>
  <linearGradient id="linearGradient4136" x1="70.492" x2="113.64" y1="416.39" y2="375.88" gradientTransform="translate(2.4907 74.429)" gradientUnits="userSpaceOnUse">
   <stop stop-color="#3d3d3d" offset="0"/>
   <stop stop-color="#000000" stop-opacity=".11401" offset="1"/>
  </linearGradient>
  <filter id="filter3291" color-interpolation-filters="sRGB">
   <feGaussianBlur stdDeviation="0.400625"/>
  </filter>
  <filter id="filter3546" color-interpolation-filters="sRGB">
   <feGaussianBlur stdDeviation="0.15992437"/>
  </filter>
  <filter id="filter948" x="-.04023" y="-.043933" width="1.0805" height="1.0879" color-interpolation-filters="sRGB">
   <feGaussianBlur stdDeviation="2.9279852"/>
  </filter>
 </defs>
 <g transform="translate(-314.54 -256.24)">
  <path d="m322.04 274.47v53.867h17.73v8.0059l0.0293 39.242c1e-3 33.475 29.058 58.838 62.416 58.838h0.084 94.914v-100.64c0-33.502-29.031-58.839-62.416-58.84l-27.047-0.0566z" fill="#000000" filter="url(#filter948)" opacity=".32"/>
  <path d="m485.74 407.23v-75.124c0-25.098-22.01-45.443-49.167-45.443h-28.186v-0.0606l-76.233-0.33309v27.41h11.702c8.1684 0 9.6114 5.6388 9.6114 13.444l0.0606 48.458c0 25.098 22.01 45.443 49.137 45.443h66.975c8.5863 0 16.1-5.4376 16.1-13.794z" fill="url(#linearGradient3538)" fill-rule="evenodd" stroke-width="1.5193"/>
  <path transform="matrix(1.593 0 0 1.593 251.39 -383.78)" d="m142.94 500.53c-10.752-7.4094-18.367-15.92-24.781-27.188-12.644-23.358-9.6879-34.953-41-37.688-9.0363 0-15.051-2-24.562-2v3.3125c1e-6 1e-5 3.7587 1.9075 7.0625 1.9075 4.9267 1e-5 5.7812 3.4176 5.7812 8.125l0.03125 29.155c-3e-6 15.138 13.295 27.406 29.656 27.406h40.375c2.9636 0 5.6257-1.1679 7.4375-3.0312z" fill="url(#linearGradient4136)" filter="url(#filter3291)" opacity=".17514"/>
  <path transform="matrix(1.593 0 0 1.593 251.39 -383.78)" d="m105.52 438.54c-3.8367 0-7.2457 1.4244-9.9848 4.1914-2.7377 2.7655-4.1752 6.218-4.1752 10.114v19.695h8.933v-19.695c0-1.4934 0.48728-2.6611 1.5536-3.7382 1.0698-1.0806 2.2026-1.5697 3.6735-1.5697 1.5018 0 2.6176 0.4867 3.6897 1.5697 1.0663 1.0771 1.5536 2.2448 1.5536 3.7382v19.695h8.933v-19.695c0-1.4934 0.48728-2.6611 1.5536-3.7382 1.0721-1.083 2.1879-1.5697 3.6897-1.5697 1.4709 0 2.6037 0.48916 3.6735 1.5697 1.0663 1.0771 1.5536 2.2448 1.5536 3.7382l0.0486 23.012c0 4.9089-4.6749 9.0462-10.681 9.0462l-28.806-0.11326c-4.6347 0-8.5931-4.5112-8.5931-10.309v-43.335h-8.4475v45.002c0 4.7747 1.7472 8.9618 5.1462 12.348 2.9052 2.8676 6.3991 4.5644 10.325 4.9843v0.16191h32.074c4.9287 0 9.2588-1.8326 12.752-5.389h0.0162c2.971-3.0524 4.7079-6.71 5.13-10.826l-0.0324-24.582c0-3.8962-1.4374-7.3487-4.1752-10.114-2.7391-2.767-6.1481-4.1914-9.9848-4.1914-3.766 0-7.0613 1.4004-9.7259 3.9648-2.6568-2.5601-5.9291-3.9648-9.6936-3.9648z" fill="#000000" fill-opacity=".080402" filter="url(#filter3546)"/>
  <path d="m418.35 315.2c-6.112 0-11.543 2.2692-15.906 6.677-4.3613 4.4055-6.6512 9.9053-6.6512 16.112v31.374h14.23v-31.374c0-2.379 0.77624-4.2392 2.4748-5.955 1.7042-1.7213 3.5088-2.5006 5.852-2.5006 2.3923 0 4.1698 0.77533 5.8778 2.5006 1.6986 1.7158 2.4749 3.576 2.4749 5.955v31.374h14.23v-31.374c0-2.379 0.77626-4.2392 2.4749-5.955 1.7079-1.7252 3.4854-2.5006 5.8778-2.5006 2.3432 0 4.1478 0.77925 5.8519 2.5006 1.6986 1.7158 2.4748 3.576 2.4748 5.955l0.0773 36.659c0 7.82-7.4472 14.411-17.015 14.411l-45.888-0.18042c-7.3832 0-13.689-7.1864-13.689-16.422v-69.034h-13.457v71.689c0 7.6062 2.7833 14.276 8.1979 19.67 4.628 4.5681 10.194 7.5293 16.447 8.1981l51.095-1.2e-4c7.8516 0 14.75-2.9194 20.314-8.5848h0.0258c4.7329-4.8626 7.4997-10.689 8.1721-17.246l-0.0515-39.16c0-6.2068-2.2898-11.707-6.6512-16.112-4.3634-4.4078-9.7941-6.677-15.906-6.677-5.9994 0-11.249 2.2309-15.494 6.316-4.2324-4.0784-9.4451-6.316-15.442-6.316z" fill="#ffffff"/>
  <path d="m409.98 388.92v14.054h33.425c7.8515 0 14.709-2.9283 20.274-8.5937h0.0476c4.7329-4.8626 7.494-10.678 8.1664-17.235v-7.9765h-14.196v5.4601c0 7.8201-7.4301 14.386-16.998 14.386l-30.719-0.095z" fill="#52a800" fill-rule="evenodd" opacity=".3"/>
  <path d="m402.22 431.43c-32.347 0-60.418-24.522-60.418-56.84l-0.029-39.241v-10.006h-20.508v-49.858l86.481 0.40727 27.053 0.0582c32.376 0 60.417 24.493 60.417 56.84v98.64h-92.997zm79.82-26.46v-72.18c0-24.114-21.148-43.662-47.24-43.662h-27.082v-0.0582l-73.246-0.32005v23.417h8.205c5.5705 0 12.273 5.2348 12.273 12.917l0.0582 49.479c0 24.114 21.148 43.662 47.211 43.662h64.351c8.2498 0 15.469-5.2246 15.469-13.254z" fill="#ffffff"/>
 </g>
</svg>
