<?xml version="1.0" encoding="UTF-8"?>
<!-- Created with Inkscape (http://www.inkscape.org/) -->
<svg width="128" height="128" version="1.0" viewBox="0 0 128 128" xmlns="http://www.w3.org/2000/svg">
 <path d="m64 6a58 58 0 0 0-58 58 58 58 0 0 0 58 58 58 58 0 0 0 58-58 58 58 0 0 0-58-58zm-0.19922 13c0.89395 0 1.7877 8.45e-4 2.6816 0.29883 0.89395 0 2.0863 0.29661 3.5762 0.89258 1.1919 0.59597 2.3834 1.192 3.2773 2.0859 1.1919 0.89395 2.0865 2.3851 2.9805 3.875 0.59597 1.7879 1.1903 3.5751 1.4883 5.959 0.29798 1.4899 0.29967 2.9805 0.59766 5.0664 0 1.7879 0.29688 2.9791 0.29688 3.873 0.29798 0.89395 0.29772 2.0863 0.5957 3.5762 0.29798 1.1919 0.59739 2.3834 1.1934 3.2773 0.59597 1.1919 1.192 2.3842 2.0859 3.5762 0.89395 1.4899 2.0854 2.9797 3.2773 4.7676 2.6819 2.9798 4.767 6.2573 5.959 9.5352 1.4899 2.9798 2.3848 6.8541 2.3848 10.996 0 2.0561-0.29856 4.0514-0.89453 5.9883 0.59597 0 0.89342 0.23907 1.1914 0.65625s0.59655 1.3104 0.89453 2.7109l0.29883 2.2051c0.29798 0.65556 0.59433 1.282 1.4883 1.8184 0.59596 0.53637 1.192 0.98422 2.0859 1.3418 0.59597 0.29798 1.49 0.71363 2.0859 1.25 0.59597 0.59597 0.89453 1.2233 0.89453 1.8789 0 1.0131-0.29856 1.7566-0.89453 2.293-0.59596 0.59597-1.192 1.0131-2.0859 1.2812-0.59597 0.29798-1.7863 0.89406-3.5742 1.7344-1.4899 0.88204-2.9808 1.9523-4.4707 3.2188l-2.9805 2.5352c-1.1919 1.1621-2.3834 1.9973-3.2773 2.5039-0.89395 0.53641-2.0854 0.80469-3.2773 0.80469l-2.0859-0.23828c-2.3839-0.62576-3.8736-1.8171-4.7676-3.6348-4.7677-0.57809-8.6415-0.86523-11.025-0.86523v0.00586c-3.8738 0-6.8536 0.52449-8.9395 1.5644v-0.08984c-1.4899 1.7879-3.1582 2.7129-5.4824 2.7129-1.4601 0-3.7564-0.56688-6.8555-1.6992-3.1288-1.0727-5.8988-1.8952-8.3125-2.4375-0.23839-0.0685-0.77452-0.16957-1.6387-0.30664-0.83435-0.13409-1.6096-0.27113-2.2949-0.4082-0.62577-0.13409-1.3405-0.33719-2.1152-0.61133-0.74496-0.23541-1.3421-0.54158-1.7891-0.91407-0.41122-0.37546-0.61328-0.79964-0.61328-1.2734 0-0.47676 0.10206-0.98502 0.30469-1.5273 0.19071-0.32779 0.39883-0.65709 0.60742-0.95508 0.20859-0.32778 0.38666-0.62388 0.50586-0.92188 0.17879-0.26818 0.29878-0.53795 0.41797-0.83594 0.11919-0.26818 0.23728-0.5355 0.29688-0.86328 0.0596-0.29798 0.11914-0.59655 0.11914-0.89453s-0.11904-1.1922-0.35742-2.7715c-0.23839-1.5495-0.35742-2.532-0.35742-2.9492 0-1.3111 0.29756-2.3547 0.95312-3.0996 0.65556-0.74496 1.2819-1.1328 1.9375-1.1328h3.4277c0.26818 0 0.68478-0.14828 1.3105-0.50586 0.20859-0.47677 0.38667-0.86312 0.50586-1.2207 0.14899-0.35758 0.20993-0.6269 0.26953-0.74609 0.0596-0.17879 0.11814-0.35687 0.17773-0.50586 0.11919-0.20859 0.26797-0.44716 0.47656-0.68555-0.23839-0.29798-0.35742-0.68534-0.35742-1.1621 0-0.32778 9.44e-4 -0.6259 0.060547-0.80469 0-1.0727 0.50538-2.5934 1.5781-4.5898l1.043-1.877c0.86415-1.6091 1.5213-2.8003 1.998-3.9922 0.50657-1.1919 1.0427-2.9794 1.6387-5.3633 0.47677-2.0859 1.6086-4.1719 3.3965-6.2578l2.2344-2.6816c1.5495-1.7879 2.5627-3.2788 3.1289-4.4707 0.56617-1.1919 0.86523-2.6811 0.86523-3.873 0-0.59597-0.15073-2.3854-0.47852-5.3652-0.29798-2.9798-0.44531-5.9588-0.44531-8.6406 0-2.0859 0.17903-3.5765 0.56641-5.0664s1.0708-2.9799 2.084-4.1719c0.89395-1.1919 2.0871-2.3826 3.875-2.9785 1.7879-0.59614 3.8739-0.89453 6.2578-0.89453z" fill="#ffffff"/>
 <path d="m67.107 32.35c-0.89395 0-1.7877 0.29856-2.6816 0.89453-0.59596 0.89395-0.89453 1.4889-0.89453 2.3828 0 1.4899 0.29857 2.6831 0.89453 3.875 0.29798 0 0.59655 0.29688 0.89453 0.29688-0.29798-0.29798-0.29883-0.89427-0.29883-1.4902 0-1.1919-2.63e-4 -1.7877 0.5957-2.6816 0.59597-0.59597 1.1931-0.89258 1.7891-0.89258 0.89395 0 1.49 0.59544 2.0859 1.1914 0.29798 0.89395 0.5957 1.4889 0.5957 2.3828 0 1.4899-0.59518 2.3856-1.7871 2.6836 0 0 0.29772 0.29687 0.5957 0.29687 0.59597 0 0.89427 0.29772 1.4902 0.5957 0.29798-1.7879 0.5957-2.9788 0.5957-4.4688 0-1.7879-0.29856-2.981-0.89453-3.875-0.89395-0.89395-1.7885-1.1914-2.9805-1.1914zm0.89453 3.2773s-0.29772 0.29883-0.5957 0.29883c0 0.29798 0.29688 0.29772 0.29688 0.5957 0.59597 0 0.89538 0.59628 1.1934 1.4902h0.5957c-0.29798-0.29798-0.29883-0.59655-0.29883-0.89453s0.0011-0.59655-0.29688-0.89453-0.59655-0.5957-0.89453-0.5957z" fill="#ffffff"/>
 <path d="m55.785 32.945c-0.89395 0-1.788 0.59628-2.0859 1.4902-0.59597 1.1919-0.71484 2.0863-0.71484 3.5762 0 1.1919 0.41549 2.3842 1.6074 3.5762 0.29798-0.29798 0.59655-0.29772 0.89453-0.5957-1.1919-0.59597-1.4902-1.4906-1.4902-2.9805 0-0.89395-2.63e-4 -1.49 0.5957-2.0859 0.29798-0.59597 0.89427-0.89453 1.4902-0.89453s0.89427 0.29856 1.4902 0.89453c0.29798 0.89395 0.5957 1.7877 0.5957 2.6816v0.59571h0.29883v-0.29688c0.29798 0 0.29688-0.59713 0.29688-1.7891 0-0.89395 2.63e-4 -1.7877-0.5957-2.6816-0.59597-0.89395-1.1909-1.4902-2.3828-1.4902zm0 2.6816s-8.45e-4 0.29883-0.29883 0.29883v0.5957h0.89453c0 0.59597 0.29688 0.89427 0.29688 1.4902h0.59766c0-1.4899-0.59628-2.3848-1.4902-2.3848z" fill="#ffffff"/>
 <path d="m60.85 39.203c-0.89395 0-2.3829 0.59713-4.4688 1.7891-1.7879 1.1919-2.9805 2.3823-2.9805 3.5742 0 0 0.29772 0.29857 0.5957 0.89453 1.7879 1.4899 3.5773 2.3848 5.3652 2.3848 2.3839 0 5.3625-1.192 9.2363-4.1719v0.5957c0.29798 0 0.29883 0.29688 0.29883 0.29688-3.8738 2.6819-6.8544 3.875-9.2383 3.875-2.0859 0-4.1711-0.89485-5.959-2.3848 0.29798 0.59597 0.5946 1.1922 0.89258 1.4902l1.7891 1.7871c1.1919 1.1919 2.682 1.7891 4.1719 1.7891 2.0859 0 4.4694-1.1915 7.4492-3.2773l2.6816-1.7891c0.59597-0.59597 1.1914-1.192 1.1914-2.0859 0-0.29798 0.001109-0.5957-0.29688-0.5957-0.29798-0.59597-1.7877-1.4889-4.7676-2.3828-2.6819-1.1919-4.769-1.7891-5.9609-1.7891zm-1.1914 0.5957c0.29798 0 0.29883 0.29883 0.29883 0.29883 0 0.29798-0.29856 0.59544-0.89453 1.1914h-0.29883c-0.29798 0-0.29688 0.0011-0.29688-0.29687 0-0.29798-0.0011-0.59655 0.29688-0.89453 0.59597 0 0.89453-0.29883 0.89453-0.29883zm1.7871 0 0.59766 0.29883c0.29798 0.29798 0.5957 0.59655 0.5957 0.89453s-0.29883 0.29687-0.29883 0.29687h-0.29688c-0.29798 0-0.29967-0.29772-0.59766-0.5957 0 0-0.29688-0.29772-0.29687-0.5957 0-0.29798-0.0011-0.29883 0.29687-0.29883z" fill="#ffffff" opacity=".75"/>
 <path d="m70.654 47.025-2.6816 2.0859c-2.9798 2.0859-5.3633 2.9805-7.4492 2.9805-1.7879 0-3.2779-0.2983-4.1719-1.4902l-1.7891-1.4902c0 0.89395-0.29856 2.0854-0.89453 3.2773l-1.877 3.5762c-0.83435 2.0859-1.2817 3.2779-1.3711 4.1719-0.11919 0.59597-0.20798 1.1914-0.26758 1.1914l-2.2344 4.4707c-2.4137 4.4698-3.6348 8.6103-3.6348 12.037 0 0.68536 0.05855 1.402 0.17774 2.1172-1.3409-0.92375-1.9961-2.2063-1.9961-3.875 0-2.0561 0.53613-4.3201 1.6387-7.002 1.0727-2.6819 2.1465-4.4702 3.1895-5.6621-0.0596-0.29798-0.20888-0.29688-0.44727-0.29687l-0.29883-0.29883c-0.86415 0.89395-1.9067 2.9792-3.1582 5.959-1.2515 2.6819-1.9082 5.155-1.9082 6.9727 0 1.3409 0.32786 2.5044 0.92383 3.5176 0.65556 0.98334 2.2352 2.4128 4.7383 4.2305l3.1582 2.0566c3.3672 2.9202 5.1562 4.9467 5.1562 6.1387 0 0.62577-0.29746 1.2521-1.1914 1.9375-0.59597 0.71516-1.4006 1.0723-2.0859 1.0723-0.0596 0-0.08984 0.06-0.08984 0.20898 0 0.02979 0.29806 0.62497 0.92383 1.7871 1.2515 1.6985 3.934 2.5332 7.5098 2.5332 6.5556 0 11.62-2.6832 15.494-8.0469 0-1.4899-8.44e-4 -2.4134-0.29883-2.8008v-1.1016c0-1.9369 0.29856-3.398 0.89453-4.3516 0.59597-0.95355 1.192-1.4004 2.0859-1.4004 0.59597 0 1.1931 0.20928 1.7891 0.65625 0.29798-2.2945 0.29688-4.2902 0.29688-6.0781 0-2.7116 2.65e-4 -4.9473-0.5957-7.0332-0.29798-1.7879-0.89427-3.2788-1.4902-4.4707l-1.7871-2.6816c-0.59597-0.89395-0.89427-1.7877-1.4902-2.6816-0.29798-1.1919-0.5957-2.0863-0.5957-3.5762-0.89395-1.4899-1.4908-2.9788-2.3848-4.4688-0.59597-1.4899-1.1911-2.9799-1.7871-4.1719z" fill="#ffffff"/>
 <path d="m80.814 61.195c-0.29798 0.29798-0.29688 0.29772-0.29688 0.5957 1.4899 0.59597 2.9791 1.7883 3.873 3.5762 0.89395 2.0859 1.1914 3.8731 1.1914 5.959 0 1.6687-0.29635 4.1422-1.4883 7.3008-1.1919 0.47677-2.3853 1.5783-3.2793 3.3066 0 0.26818 8.43e-4 0.41797 0.29883 0.41797 0 0 0.29772-0.26882 0.5957-0.77539 0.59597-0.50657 0.89427-1.013 1.4902-1.5195 0.89395-0.50657 1.4889-0.77539 2.3828-0.77539 1.4899 0 2.981 0.20978 3.875 0.62695 1.1919 0.38738 1.788 0.80448 2.0859 1.2812 0.29798 0.44698 0.59655 0.86457 0.89453 1.252 0 0.38738 0.29688 0.56641 0.29688 0.56641 0.29798 0 0.29883-0.12049 0.29883-0.38867 0-0.65556-0.29941-1.4308-1.1934-2.2949-0.89395-0.89395-2.384-1.4589-4.1719-1.6973-0.29798-0.02979-0.5957-0.0293-0.5957-0.0293-0.29798-0.0596-0.29772-0.06055-0.5957-0.06055-0.29798-0.02979-0.89342-0.08884-1.1914-0.14844 0.89395-2.7712 1.1914-5.2158 1.1914-7.3613 0-2.9798-0.59518-5.0656-1.7871-6.8535-1.1919-1.7879-2.3851-2.6805-3.875-2.9785z" fill="#ffffff"/>
 <path d="m39.455 80.908c-1.2515 0.23839-2.116 0.65649-2.5332 1.2227-0.41718 0.56617-0.65525 1.1921-0.71484 1.8477-0.08939 0.62577-0.26842 1.0434-0.56641 1.252-0.29798 0.17879-0.80487 0.32757-1.4902 0.47656-0.14899 0-0.41731-4.93e-4 -0.80469 0.0293h-0.80469c-1.5793 0-2.6506 0.17858-3.2168 0.47656-0.74496 0.86415-1.1328 1.8477-1.1328 2.8906 0 0.47677 0.11904 1.2817 0.35742 2.4141 0.23839 1.1025 0.35742 1.9953 0.35742 2.6211 0 1.2217-0.3566 2.4443-1.1016 3.666-0.74496 1.2813-1.1328 2.2347-1.1328 2.9141 0.29798 1.1562 2.2635 1.9705 5.8691 2.4473v8e-3c2.7712 0.40525 5.9608 1.2726 9.5664 2.5957 3.6056 1.3111 5.8107 1.9961 6.6152 1.9961 2.0859 0 3.8138-0.92406 5.2441-2.709 0.29798-0.57808 0.29883-1.2564 0.29883-2.0371 0-2.8159-1.6987-6.3765-5.0957-10.697l-2.0273-2.7129c-0.41718-0.56617-0.92256-1.4297-1.5781-2.5918-0.62577-1.1621-1.1917-2.0559-1.6387-2.6816-0.38738-0.68536-1.0138-1.3713-1.8184-2.0566-0.77476-0.68536-1.669-1.1327-2.6523-1.3711z" fill="#ffffff" opacity=".75"/>
 <path d="m79.027 82.5c-1.4899 0-2.0859 1.5489-2.0859 4.6777v9.2676c0 0.26819-0.29883 0.86531-0.29883 1.7891-0.29798 0.92375-0.29688 1.9722-0.29688 3.1582l-0.5957 3.3066v0.0608c1.1919 2.2408 3.2782 3.3672 5.6621 3.3672 0.59597 0 1.1911-0.0888 1.7871-0.26757 0.59597-0.11921 1.1923-0.32802 1.4902-0.56641 0.29798-0.20858 0.59459-0.41787 0.89258-0.65625 0.59597-0.20859 0.59655-0.35688 0.89453-0.50586l5.0664-4.3811c1.1919-0.95057 2.3831-1.7828 3.873-2.5039 1.1919-0.71516 2.3845-1.1908 2.9805-1.459 0.89394-0.23839 1.49-0.59549 2.0859-1.0723 0.29798-0.44698 0.59571-1.0134 0.5957-1.7285 0-0.86415-0.59543-1.5193-1.1914-1.9961-0.59597-0.47677-1.1931-0.80508-1.7891-1.0137-0.59597-0.20859-1.192-0.68568-2.0859-1.4902-0.59597-0.77476-1.1923-1.8475-1.4902-3.248l-0.29688-1.7285c-0.29798-0.80456-0.29772-1.4007-0.5957-1.7285 0-0.08939-8.43e-4 -0.11914-0.29883-0.11914-0.29798 0-0.89342 0.26882-1.1914 0.77539-0.59597 0.50657-1.1911 1.072-1.7871 1.668-0.29798 0.59597-1.1931 1.1321-1.7891 1.6387-0.89395 0.50657-1.7868 0.77539-2.3828 0.77539-2.3839 0-3.5768-0.65617-4.4707-1.9375-0.59597-0.95355-0.89342-2.0551-1.1914-3.3066-0.59597-0.50657-0.89427-0.77539-1.4902-0.77539z" fill="#ffffff" opacity=".75" />
 <path d="m64 0c-35.328 0-64 28.672-64 64s28.672 64 64 64 64-28.672 64-64-28.672-64-64-64zm0 3c33.707 0 61 27.293 61 61s-27.293 61-61 61-61-27.293-61-61 27.293-61 61-61z" fill="#ffffff" />
 <path d="m64 3c-33.672 0-61 27.328-61 61s27.328 61 61 61 61-27.328 61-61-27.328-61-61-61zm0 3c32.05 0 58 25.95 58 58s-25.95 58-58 58-58-25.95-58-58 25.95-58 58-58z" fill="#ffffff" opacity=".333" />
</svg>
