<?xml version="1.0" encoding="UTF-8"?>
<!-- Created with Inkscape (http://www.inkscape.org/) -->
<svg width="284" height="64" version="1.1" viewBox="0 0 284 64" xmlns="http://www.w3.org/2000/svg">
 <g id="logo" transform="matrix(2 0 0 2 -73.615 251.17)" fill="#ffffff">
  <path d="m36.808-125.59v32h9v-23h11.5v-9zm23 0v32h9v-32zm-11.5 11.5v20.5h9v-20.5z"/>
  <g stroke-width="1px" aria-label="manjaro">
   <path d="m87.957-115.71q2.175 0 3.5 1.425 1.35 1.425 1.35 3.975v7.15q0 0.55-0.35 0.925-0.35 0.35-0.925 0.35-0.55 0-0.925-0.35-0.35-0.375-0.35-0.925v-7.15q0-1.525-0.775-2.3-0.75-0.8-2.025-0.8-1.3 0-2.15 0.9-0.825 0.9-0.825 2.3v7.05q0 0.55-0.35 0.925-0.35 0.35-0.925 0.35-0.55 0-0.925-0.35-0.35-0.375-0.35-0.925v-7.15q0-1.525-0.775-2.3-0.75-0.8-2.025-0.8-1.325 0-2.175 0.9-0.825 0.9-0.825 2.3v7.05q0 0.55-0.35 0.925-0.35 0.35-0.925 0.35-0.55 0-0.925-0.35-0.35-0.375-0.35-0.925v-11.125q0-0.575 0.35-0.925 0.375-0.35 0.925-0.35t0.9 0.35q0.35 0.325 0.375 0.875 0.65-0.65 1.55-1 0.9-0.375 1.95-0.375 1.275 0 2.275 0.525 1.025 0.5 1.675 1.45 0.75-0.925 1.875-1.45t2.5-0.525z"/>
   <path d="m103.22-115.68q1.925 0 3.475 0.925 1.575 0.9 2.475 2.5 0.925 1.575 0.925 3.525v5.575q0 0.55-0.375 0.925-0.35 0.35-0.9 0.35t-0.925-0.35q-0.35-0.375-0.35-0.925v-0.925q-0.875 1.075-2.125 1.675t-2.7 0.6q-1.8 0-3.275-0.9-1.45-0.9-2.3-2.475-0.825-1.6-0.825-3.55t0.9-3.525q0.9-1.6 2.475-2.5 1.6-0.925 3.525-0.925zm0 11.625q1.25 0 2.25-0.6 1.025-0.625 1.6-1.675 0.575-1.075 0.575-2.4t-0.575-2.4-1.6-1.675q-1-0.625-2.25-0.625t-2.275 0.625q-1 0.6-1.6 1.675-0.575 1.075-0.575 2.4t0.575 2.4q0.6 1.05 1.6 1.675 1.025 0.6 2.275 0.6z"/>
   <path d="m120.71-115.71q1.725 0 3.1 0.75t2.15 2.2q0.775 1.425 0.775 3.45v6.15q0 0.55-0.375 0.925-0.35 0.35-0.9 0.35t-0.925-0.35q-0.35-0.375-0.35-0.925v-6.15q0-2.025-1.1-3.05-1.075-1.05-2.875-1.05-1.05 0-1.925 0.425-0.85 0.425-1.35 1.15-0.475 0.725-0.475 1.625v7.05q0 0.55-0.35 0.925-0.35 0.35-0.925 0.35-0.55 0-0.925-0.35-0.35-0.375-0.35-0.925v-11.15q0-0.575 0.35-0.925 0.375-0.35 0.925-0.35 0.575 0 0.925 0.35t0.35 0.925v0.275q0.8-0.8 1.9-1.225 1.1-0.45 2.35-0.45z"/>
   <path d="m127.46-96.059q-0.55 0-0.9-0.375-0.35-0.35-0.35-0.9t0.35-0.925q0.35-0.35 0.9-0.35 1.475 0 2.425-0.95 0.95-0.925 0.95-2.4v-12.35q0-0.575 0.35-0.925 0.375-0.35 0.925-0.35 0.575 0 0.925 0.35t0.35 0.925v12.35q0 1.7-0.75 3.05-0.75 1.35-2.1 2.1t-3.075 0.75zm4.65-21.75q-0.675 0-1.175-0.475-0.475-0.5-0.475-1.175t0.475-1.15q0.5-0.5 1.175-0.5t1.15 0.5q0.5 0.475 0.5 1.15t-0.5 1.175q-0.475 0.475-1.15 0.475z"/>
   <path d="m143.36-115.68q1.925 0 3.475 0.925 1.575 0.9 2.475 2.5 0.925 1.575 0.925 3.525v5.575q0 0.55-0.375 0.925-0.35 0.35-0.9 0.35t-0.925-0.35q-0.35001-0.375-0.35001-0.925v-0.925q-0.875 1.075-2.125 1.675t-2.7 0.6q-1.8 0-3.275-0.9-1.45-0.9-2.3-2.475-0.825-1.6-0.825-3.55t0.9-3.525q0.9-1.6 2.475-2.5 1.6-0.925 3.525-0.925zm0 11.625q1.25 0 2.25-0.6 1.025-0.625 1.6-1.675 0.575-1.075 0.575-2.4t-0.575-2.4-1.6-1.675q-1-0.625-2.25-0.625t-2.275 0.625q-1 0.6-1.6 1.675-0.575 1.075-0.575 2.4t0.575 2.4q0.6 1.05 1.6 1.675 1.025 0.6 2.275 0.6z"/>
   <path d="m160.75-115.73q1.325 0 2.075 0.4t0.75 1q0 0.175-0.025 0.25-0.225 0.8-1 0.8-0.125 0-0.375-0.05-1-0.175-1.625-0.175-1.8 0-2.9 0.825t-1.1 2.225v7.3q0 0.6-0.325 0.925-0.3 0.325-0.925 0.325-0.6 0-0.925-0.3-0.325-0.325-0.325-0.95v-11.175q0-0.6 0.325-0.925t0.925-0.325q1.25 0 1.25 1.25v0.475q0.75-0.875 1.85-1.375t2.35-0.5z"/>
   <path d="m171.43-101.81q-2 0-3.575-0.875-1.575-0.9-2.45-2.475t-0.875-3.575q0-2.025 0.875-3.6t2.45-2.45q1.575-0.9 3.575-0.9 1.975 0 3.525 0.9 1.575 0.875 2.45 2.45 0.9 1.575 0.9 3.6 0 2-0.875 3.575t-2.45 2.475q-1.55 0.875-3.55 0.875zm0-2.25q1.275 0 2.275-0.6 1.025-0.6 1.575-1.65 0.575-1.075 0.575-2.425t-0.575-2.425q-0.55-1.075-1.575-1.675-1-0.6-2.275-0.6t-2.3 0.6q-1 0.6-1.575 1.675t-0.575 2.425 0.575 2.425q0.575 1.05 1.575 1.65 1.025 0.6 2.3 0.6z"/>
  </g>
 </g>
</svg>
