<?xml version="1.0" encoding="UTF-8"?>
<!-- Created with Inkscape (http://www.inkscape.org/) -->
<svg width="300" height="64" version="1.1" viewBox="0 0 300 64" xmlns="http://www.w3.org/2000/svg">
 <g fill="#ffffff">
  <path d="m1e-3 -0.01v64h18v-46h23v-18zm46 0v64h18v-64zm-23 23v41h18v-41z" stroke-width="2"/>
  <g stroke-width="2px">
   <path d="m119.3 19.75q4.35 0 7 2.85 2.7 2.85 2.7 7.95v14.3q0 1.1-0.7 1.85-0.7 0.7-1.85 0.7-1.1 0-1.85-0.7-0.7-0.75-0.7-1.85v-14.3q0-3.05-1.55-4.6-1.5-1.6-4.05-1.6-2.6 0-4.3 1.8-1.65 1.8-1.65 4.6v14.1q0 1.1-0.7 1.85-0.7 0.7-1.85 0.7-1.1 0-1.85-0.7-0.7-0.75-0.7-1.85v-14.3q0-3.05-1.55-4.6-1.5-1.6-4.05-1.6-2.65 0-4.35 1.8-1.65 1.8-1.65 4.6v14.1q0 1.1-0.7 1.85-0.7 0.7-1.85 0.7-1.1 0-1.85-0.7-0.7-0.75-0.7-1.85v-22.25q0-1.15 0.7-1.85 0.75-0.7 1.85-0.7t1.8 0.7q0.7 0.65 0.75 1.75 1.3-1.3 3.1-2 1.8-0.75 3.9-0.75 2.55 0 4.55 1.05 2.05 1 3.35 2.9 1.5-1.85 3.75-2.9t5-1.05z"/>
   <path d="m149.83 19.81q3.85 0 6.95 1.85 3.15 1.8 4.95 5 1.85 3.15 1.85 7.05v11.15q0 1.1-0.75 1.85-0.7 0.7-1.8 0.7t-1.85-0.7q-0.7-0.75-0.7-1.85v-1.85q-1.75 2.15-4.25 3.35t-5.4 1.2q-3.6 0-6.55-1.8-2.9-1.8-4.6-4.95-1.65-3.2-1.65-7.1t1.8-7.05q1.8-3.2 4.95-5 3.2-1.85 7.05-1.85zm0 23.25q2.5 0 4.5-1.2 2.05-1.25 3.2-3.35 1.15-2.15 1.15-4.8t-1.15-4.8-3.2-3.35q-2-1.25-4.5-1.25t-4.55 1.25q-2 1.2-3.2 3.35-1.15 2.15-1.15 4.8t1.15 4.8q1.2 2.1 3.2 3.35 2.05 1.2 4.55 1.2z"/>
   <path d="m184.81 19.75q3.45 0 6.2 1.5t4.3 4.4q1.55 2.85 1.55 6.9v12.3q0 1.1-0.75 1.85-0.7 0.7-1.8 0.7t-1.85-0.7q-0.7-0.75-0.7-1.85v-12.3q0-4.05-2.2-6.1-2.15-2.1-5.75-2.1-2.1 0-3.85 0.85-1.7 0.85-2.7 2.3-0.95 1.45-0.95 3.25v14.1q0 1.1-0.7 1.85-0.7 0.7-1.85 0.7-1.1 0-1.85-0.7-0.7-0.75-0.7-1.85v-22.3q0-1.15 0.7-1.85 0.75-0.7 1.85-0.7 1.15 0 1.85 0.7t0.7 1.85v0.55q1.6-1.6 3.8-2.45 2.2-0.9 4.7-0.9z"/>
   <path d="m198.31 59.052q-1.1 0-1.8-0.75-0.7-0.7-0.7-1.8t0.7-1.85q0.7-0.7 1.8-0.7 2.95 0 4.85-1.9 1.9-1.85 1.9-4.8v-24.7q0-1.15 0.7-1.85 0.75-0.7 1.85-0.7 1.15 0 1.85 0.7t0.7 1.85v24.7q0 3.4-1.5 6.1t-4.2 4.2-6.15 1.5zm9.3-43.5q-1.35 0-2.35-0.95-0.95-1-0.95-2.35t0.95-2.3q1-1 2.35-1t2.3 1q1 0.95 1 2.3t-1 2.35q-0.95 0.95-2.3 0.95z"/>
   <path d="m230.11 19.81q3.85 0 6.95 1.85 3.15 1.8 4.95 5 1.85 3.15 1.85 7.05v11.15q0 1.1-0.75 1.85-0.7 0.7-1.8 0.7t-1.85-0.7q-0.70002-0.75-0.70002-1.85v-1.85q-1.75 2.15-4.25 3.35t-5.4 1.2q-3.6 0-6.55-1.8-2.9-1.8-4.6-4.95-1.65-3.2-1.65-7.1t1.8-7.05q1.8-3.2 4.95-5 3.2-1.85 7.05-1.85zm0 23.25q2.5 0 4.5-1.2 2.05-1.25 3.2-3.35 1.15-2.15 1.15-4.8t-1.15-4.8-3.2-3.35q-2-1.25-4.5-1.25t-4.55 1.25q-2 1.2-3.2 3.35-1.15 2.15-1.15 4.8t1.15 4.8q1.2 2.1 3.2 3.35 2.05 1.2 4.55 1.2z"/>
   <path d="m264.89 19.71q2.65 0 4.15 0.8t1.5 2q0 0.35-0.05 0.5-0.45 1.6-2 1.6-0.25 0-0.75-0.1-2-0.35-3.25-0.35-3.6 0-5.8 1.65t-2.2 4.45v14.6q0 1.2-0.65 1.85-0.6 0.65-1.85 0.65-1.2 0-1.85-0.6-0.65-0.65-0.65-1.9v-22.35q0-1.2 0.65-1.85t1.85-0.65q2.5 0 2.5 2.5v0.95q1.5-1.75 3.7-2.75t4.7-1z"/>
   <path d="m286.25 47.55q-4 0-7.15-1.75-3.15-1.8-4.9-4.95t-1.75-7.15q0-4.05 1.75-7.2t4.9-4.9q3.15-1.8 7.15-1.8 3.95 0 7.05 1.8 3.15 1.75 4.9 4.9 1.8 3.15 1.8 7.2 0 4-1.75 7.15t-4.9 4.95q-3.1 1.75-7.1 1.75zm0-4.5q2.55 0 4.55-1.2 2.05-1.2 3.15-3.3 1.15-2.15 1.15-4.85t-1.15-4.85q-1.1-2.15-3.15-3.35-2-1.2-4.55-1.2t-4.6 1.2q-2 1.2-3.15 3.35t-1.15 4.85 1.15 4.85q1.15 2.1 3.15 3.3 2.05 1.2 4.6 1.2z"/>
  </g>
 </g>
</svg>
