<?xml version="1.0" encoding="UTF-8"?>
<svg xmlns="http://www.w3.org/2000/svg" height="64" viewBox="0 0 284 64" width="284" version="1.1">
<g fill="#ffffff">
 <g>
  <path d="m33.995 61.815c-1.7277 0.43239-4.0067 0.89067-6.8396 1.376-2.8325 0.48602-6.1106 0.72791-9.8342 0.72791-3.2376 0-5.9632-0.47291-8.1755-1.4153-2.2116-0.944-3.9922-2.28-5.3408-4.007-1.3493-1.728-2.3206-3.765-2.9143-6.112-0.59401-2.347-0.8899-4.949-0.8899-7.811v-23.634h7.5274v22.015c0 5.1273 0.8093 8.7969 2.4283 11.008 1.6186 2.2126 4.3431 3.319 8.1747 3.319 0.80967 0 1.6452-0.0275 2.5096-0.0822 0.86255-0.053 1.6715-0.12076 2.4279-0.20214 0.75529-0.0807 1.4427-0.16126 2.0641-0.24226 0.61916-0.0815 1.0643-0.17513 1.3351-0.28278v-35.533h7.5278v40.875z"/>
  <path d="m52.368 22.802c0.91655-0.59289 2.3068-1.2139 4.1684-1.8612 1.8616-0.64803 4.0067-0.97129 6.435-0.97129 3.0208 0 5.7067 0.53966 8.0536 1.6182 2.3469 1.08 4.3304 2.5903 5.949 4.5336 1.6193 1.9418 2.846 4.2629 3.6827 6.9608 0.83555 2.6987 1.2548 5.6655 1.2548 8.9026 0 3.4-0.4999 6.4631-1.4975 9.1873-0.99943 2.7253-2.4159 5.0313-4.2501 6.9199-1.8346 1.8894-4.0465 3.3471-6.6371 4.3705-2.5899 1.0246-5.5038 1.538-8.7418 1.538-3.508 0-6.6101-0.24228-9.308-0.72755-2.699-0.48566-4.9109-0.9713-6.6371-1.457v-60.302l7.5274-1.2942v22.582zm0 33.671c0.75529 0.21639 1.8204 0.41852 3.1971 0.60678 1.3756 0.1894 3.0883 0.28315 5.14 0.28315 4.0469 0 7.2844-1.3358 9.7131-4.0064 2.4279-2.6709 3.6422-6.4616 3.6422-11.373 0-2.1564-0.21639-4.18-0.64766-6.0705-0.43278-1.8882-1.1329-3.5203-2.1042-4.8967-0.97168-1.3763-2.2265-2.4549-3.7637-3.2383-1.5383-0.78119-3.3872-1.1731-5.5447-1.1731-2.0514 0-3.9396 0.35179-5.6658 1.0523-1.7277 0.70205-3.0497 1.4303-3.9662 2.1849v26.63z"/>
  <path d="m123.92 61.815c-1.7273 0.43239-4.0071 0.89067-6.84 1.376-2.8329 0.48602-6.1106 0.72791-9.8342 0.72791-3.2383 0-5.9636-0.47291-8.1755-1.4153-2.213-0.94355-3.994-2.2798-5.3418-4.0071-1.3497-1.7274-2.3206-3.7641-2.9143-6.1114-0.59366-2.3473-0.8903-4.9492-0.8903-7.8109v-23.634h7.5282v22.015c0 5.1273 0.80892 8.7969 2.4283 11.008 1.6186 2.2126 4.3428 3.319 8.1751 3.319 0.80853 0 1.6452-0.0275 2.5085-0.0822 0.86217-0.053 1.6722-0.12076 2.4283-0.20214 0.75529-0.0807 1.4434-0.16126 2.0641-0.24226 0.61956-0.0815 1.0651-0.17513 1.3358-0.28278v-35.533h7.5274v40.875z"/>
  <path d="m134.76 22.154c1.7262-0.43129 4.0184-0.89068 6.8801-1.3767 2.8596-0.48528 6.1519-0.72792 9.8743-0.72792 3.346 0 6.1241 0.47328 8.3367 1.4161 2.2119 0.94543 3.9794 2.2663 5.3017 3.9662 1.3212 1.6996 2.2531 3.7378 2.7928 6.1114 0.53929 2.3754 0.81004 4.9919 0.81004 7.8518v23.633h-7.5282v-22.016c0-2.5895-0.17587-4.8018-0.52652-6.6371-0.35102-1.8331-0.92967-3.3182-1.7397-4.4507-0.81003-1.1337-1.889-1.9561-3.2376-2.4692-1.3508-0.51303-3.023-0.76917-5.0182-0.76917-0.8093 0-1.6475 0.0277-2.5093 0.0811-0.86367 0.0544-1.6868 0.12225-2.4684 0.2025-0.78453 0.0811-1.4854 0.17627-2.105 0.28352-0.62066 0.10875-1.0666 0.18976-1.3358 0.24227v35.533h-7.5267v-40.874z"/>
  <path d="m186.16 20.94h15.945v6.3135h-15.945v19.425c0 2.105 0.16051 3.8447 0.48567 5.2207 0.32362 1.3775 0.80853 2.4564 1.4562 3.2379 0.64842 0.78308 1.457 1.3366 2.4283 1.6595 0.9713 0.32364 2.1042 0.48639 3.3999 0.48639 2.3199 0 4.1552-0.25576 5.5038-0.76917 1.3478-0.51228 2.2662-0.87716 2.7519-1.0924l1.6186 6.1518c-0.75604 0.37765-2.0919 0.8633-4.0067 1.4555-1.9152 0.59328-4.087 0.89068-6.516 0.89068-2.8595 0-5.2203-0.36377-7.0815-1.0924-1.862-0.72904-3.3598-1.8211-4.4924-3.2773-1.133-1.4581-1.9299-3.2514-2.3878-5.3831-0.45866-2.1312-0.68855-4.6004-0.68855-7.4063v-37.557l7.5282-1.2942v13.031z"/>
  <path d="m243.06 61.815c-1.7277 0.43239-4.0068 0.89067-6.8396 1.376-2.8333 0.48602-6.1102 0.72791-9.8334 0.72791-3.2383 0-5.9636-0.47291-8.1758-1.4153-2.2126-0.94355-3.994-2.2798-5.3433-4.0071-1.3486-1.7274-2.3199-3.7641-2.9139-6.1114-0.59403-2.3473-0.88993-4.9492-0.88993-7.8109v-23.634h7.5282v22.015c0 5.1273 0.80929 8.7969 2.4275 11.008 1.6193 2.2126 4.3435 3.319 8.1758 3.319 0.8093 0 1.6452-0.0275 2.5093-0.0822 0.86218-0.053 1.6707-0.12076 2.4275-0.20214 0.75604-0.0807 1.4431-0.16126 2.0648-0.24226 0.61955-0.0815 1.0643-0.17513 1.3347-0.28278v-35.533h7.5282v40.875z"/>
 </g>
 <path d="m267 0.00001a16.998 16.998 0 0 0 -17 16.998 16.998 16.998 0 0 0 17 16.998 16.998 16.998 0 0 0 17 -16.998 16.998 16.998 0 0 0 -17 -16.998zm5.5631 5.2803c0.35219 0.009 0.70711 0.10368 1.0335 0.29226 1.0459 0.60265 1.404 1.9396 0.80058 2.9848-0.60302 1.0456-1.9396 1.404-2.9848 0.79985-1.0452-0.60303-1.404-1.9396-0.80058-2.9848 0.41485-0.71829 1.1764-1.1122 1.9513-1.0921zm-5.5631 2.3285c0.85241 0 1.6794 0.11404 2.4655 0.32743 0.13838 0.88804 0.66228 1.7081 1.5008 2.1922 0.83817 0.48418 1.8093 0.52764 2.6464 0.20437 1.5815 1.5691 2.6084 3.697 2.7585 6.0633l-3.1628 0.0491c-0.27901-3.1839-2.9517-5.6795-6.2084-5.6795-0.93756 0-1.8279 0.20812-2.6252 0.57863l-1.5389-2.7636c1.2552-0.62214 2.6685-0.97197 4.1641-0.97197zm-5.2064 1.5748 1.6239 2.7138c-1.6025 1.1277-2.6501 2.9918-2.6501 5.1002 0 2.1091 1.0476 3.9732 2.6501 5.1009l-1.6239 2.7145c-1.8811-1.2563-3.2822-3.1731-3.8733-5.4195 0.6998-0.56364 1.1485-1.4268 1.1485-2.3959 0-0.96869-0.4491-1.8322-1.1485-2.3959 0.59104-2.246 1.9922-4.1621 3.8733-5.418zm-5.8011 5.629c1.2075 0 2.1864 0.97811 2.1864 2.1849 0 1.2072-0.97848 2.1857-2.1864 2.1857-1.2065 0-2.1849-0.97848-2.1849-2.1857 0-1.2068 0.97848-2.1849 2.1849-2.1849zm17.215 2.7372 3.1628 0.0499c-0.15041 2.366-1.1763 4.4935-2.7577 6.0633-0.83741-0.32326-1.8086-0.27979-2.6464 0.20437-0.83855 0.48376-1.3624 1.3038-1.5008 2.1923-0.78567 0.21337-1.6131 0.32739-2.4655 0.32739-1.4956 0-2.9092-0.34944-4.1648-0.97197l1.5389-2.7636c0.79767 0.37125 1.6883 0.57936 2.6259 0.57936 3.2567 0 5.929-2.497 6.2076-5.681zm-0.76175 6.7965c0.77487-0.0203 1.5364 0.37355 1.9513 1.0921 0.60341 1.0452 0.2446 2.3821-0.80058 2.9855-1.0452 0.60305-2.3814 0.24497-2.9848-0.79985s-0.2446-2.3814 0.80058-2.9848c0.32663-0.18857 0.68131-0.2838 1.0335-0.29299z"/>
</g>
</svg>
