<?xml version="1.0" encoding="UTF-8" standalone="no"?>
<svg
   height="16px"
   viewBox="0 0 16 16"
   width="16px"
   version="1.1"
   id="svg4"
   sodipodi:docname="draw-pixel.svg"
   inkscape:version="1.2.2 (b0a8486541, 2022-12-01)"
   xml:space="preserve"
   xmlns:inkscape="http://www.inkscape.org/namespaces/inkscape"
   xmlns:sodipodi="http://sodipodi.sourceforge.net/DTD/sodipodi-0.dtd"
   xmlns:xlink="http://www.w3.org/1999/xlink"
   xmlns="http://www.w3.org/2000/svg"
   xmlns:svg="http://www.w3.org/2000/svg"><defs
     id="defs8"><clipPath
       id="a"><path
         d="m 13,11 a 3,3 0 1 0 -3,3 3,3 0 0 0 3,-3 z m -3,5 a 5,5 0 1 1 5,-5 5,5 0 0 1 -5,5 z M 6.42,2.56 5.75,3.2 A 2,2 0 0 1 4.37,3.76 H 2 A 1.89,1.89 0 0 0 0,5.51 v 10.54 a 1.89,1.89 0 0 0 2,1.76 h 16 a 1.89,1.89 0 0 0 2,-1.76 V 5.51 A 1.89,1.89 0 0 0 18,3.75 H 15.63 A 2,2 0 0 1 14.25,3.19 L 13.58,2.55 A 2,2 0 0 0 12.2,2 H 7.8 A 2,2 0 0 0 6.42,2.56 Z"
         clip-rule="evenodd"
         id="path2-3" /></clipPath><linearGradient
       id="linearGradient1062"><stop
         id="stop1056"
         style="stop-color:#fdde76;stop-opacity:1"
         offset="0.26238" /><stop
         id="stop1058"
         style="stop-color:#f9c440;stop-opacity:1"
         offset="0.66093999" /></linearGradient><linearGradient
       id="linearGradient3977"><stop
         offset="0"
         style="stop-color:#ffffff;stop-opacity:1"
         id="stop3979" /><stop
         offset="0"
         style="stop-color:#ffffff;stop-opacity:0.23529412"
         id="stop3981" /><stop
         offset="0.99999994"
         style="stop-color:#ffffff;stop-opacity:0.15686275"
         id="stop3983" /><stop
         offset="1"
         style="stop-color:#ffffff;stop-opacity:0.39215687"
         id="stop3985" /></linearGradient><linearGradient
       id="linearGradient3600-4"><stop
         offset="0"
         style="stop-color:#f4f4f4;stop-opacity:1"
         id="stop3602-7" /><stop
         offset="1"
         style="stop-color:#dbdbdb;stop-opacity:1"
         id="stop3604-6" /></linearGradient><linearGradient
       id="linearGradient5060"><stop
         offset="0"
         style="stop-color:#000000;stop-opacity:1"
         id="stop5062" /><stop
         offset="1"
         style="stop-color:#000000;stop-opacity:0"
         id="stop5064" /></linearGradient><linearGradient
       id="linearGradient5048"><stop
         offset="0"
         style="stop-color:#000000;stop-opacity:0"
         id="stop5050" /><stop
         offset="0.5"
         style="stop-color:#000000;stop-opacity:1"
         id="stop5056" /><stop
         offset="1"
         style="stop-color:#000000;stop-opacity:0"
         id="stop5052" /></linearGradient><linearGradient
       gradientTransform="matrix(0.56756757,0,0,0.72972971,39.486247,-19.305584)"
       gradientUnits="userSpaceOnUse"
       xlink:href="#linearGradient3977"
       id="linearGradient3013"
       y2="41.814808"
       x2="23.99999"
       y1="6.1851754"
       x1="23.99999" /><linearGradient
       gradientTransform="matrix(0.62856997,0,0,0.60839392,45.003644,-10.938536)"
       gradientUnits="userSpaceOnUse"
       xlink:href="#linearGradient3600-4"
       id="linearGradient3016"
       y2="47.013336"
       x2="25.132275"
       y1="0.98520643"
       x1="25.132275" /><radialGradient
       gradientTransform="matrix(0.01566318,0,0,0.00823529,17.610433,25.980565)"
       gradientUnits="userSpaceOnUse"
       xlink:href="#linearGradient5060"
       id="radialGradient3021"
       fy="486.64789"
       fx="605.71429"
       r="117.14286"
       cy="486.64789"
       cx="605.71429" /><radialGradient
       gradientTransform="matrix(-0.01566318,0,0,0.00823529,14.389566,25.980565)"
       gradientUnits="userSpaceOnUse"
       xlink:href="#linearGradient5060"
       id="radialGradient3024"
       fy="486.64789"
       fx="605.71429"
       r="117.14286"
       cy="486.64789"
       cx="605.71429" /><linearGradient
       gradientTransform="matrix(0.04576928,0,0,0.00823529,46.836023,0.61835316)"
       gradientUnits="userSpaceOnUse"
       xlink:href="#linearGradient5048"
       id="linearGradient3027"
       y2="609.50507"
       x2="302.85715"
       y1="366.64789"
       x1="302.85715" /><linearGradient
       id="linearGradient3104-6"><stop
         id="stop3106-3"
         style="stop-color:#000000;stop-opacity:0.31782946"
         offset="0" /><stop
         id="stop3108-9"
         style="stop-color:#000000;stop-opacity:0.24031007"
         offset="1" /></linearGradient><linearGradient
       y2="2.9062471"
       x2="-51.786404"
       y1="50.786446"
       x1="-51.786404"
       gradientTransform="matrix(0.53064141,0,0,0.58970049,76.212627,-14.015924)"
       gradientUnits="userSpaceOnUse"
       id="linearGradient3148"
       xlink:href="#linearGradient3104-6" /><linearGradient
       x1="23.99999"
       y1="6.2399855"
       x2="23.99999"
       y2="41.759987"
       id="linearGradient4161"
       xlink:href="#linearGradient3924-0"
       gradientUnits="userSpaceOnUse"
       gradientTransform="matrix(0.67567568,0,0,0.67567568,-0.21621703,-0.21620627)" /><linearGradient
       id="linearGradient3924-0"><stop
         id="stop3926-6"
         style="stop-color:#ffffff;stop-opacity:1"
         offset="0" /><stop
         id="stop3928-3"
         style="stop-color:#ffffff;stop-opacity:0.23529412"
         offset="0.04166666" /><stop
         id="stop3930-2"
         style="stop-color:#ffffff;stop-opacity:0.15686275"
         offset="0.95833325" /><stop
         id="stop3932-62"
         style="stop-color:#ffffff;stop-opacity:0.39215687"
         offset="1" /></linearGradient><radialGradient
       cx="4.9929786"
       cy="43.5"
       r="2.5"
       fx="4.9929786"
       fy="43.5"
       id="radialGradient2976"
       xlink:href="#linearGradient3688-166-749-6"
       gradientUnits="userSpaceOnUse"
       gradientTransform="matrix(2.003784,0,0,1.4,27.98813,-17.4)" /><linearGradient
       id="linearGradient3688-166-749-6"><stop
         id="stop2883-8"
         style="stop-color:#181818;stop-opacity:1"
         offset="0" /><stop
         id="stop2885-3"
         style="stop-color:#181818;stop-opacity:0"
         offset="1" /></linearGradient><radialGradient
       cx="4.9929786"
       cy="43.5"
       r="2.5"
       fx="4.9929786"
       fy="43.5"
       id="radialGradient2978"
       xlink:href="#linearGradient3688-166-749-6"
       gradientUnits="userSpaceOnUse"
       gradientTransform="matrix(2.003784,0,0,1.4,-20.01187,-104.4)" /><linearGradient
       x1="25.058096"
       y1="47.027729"
       x2="25.058096"
       y2="39.999443"
       id="linearGradient2980"
       xlink:href="#linearGradient3702-501-757-3"
       gradientUnits="userSpaceOnUse" /><linearGradient
       id="linearGradient3702-501-757-3"><stop
         id="stop2895-3"
         style="stop-color:#181818;stop-opacity:0"
         offset="0" /><stop
         id="stop2897-28"
         style="stop-color:#181818;stop-opacity:1"
         offset="0.5" /><stop
         id="stop2899-8"
         style="stop-color:#181818;stop-opacity:0"
         offset="1" /></linearGradient><linearGradient
       xlink:href="#linearGradient1062"
       id="linearGradient856-2"
       x1="23.528315"
       y1="6.08318"
       x2="23.528315"
       y2="44.23307"
       gradientUnits="userSpaceOnUse"
       gradientTransform="matrix(0.69230783,0,0,0.69230789,12.034526,-10.498132)" /><linearGradient
       id="linearGradient854"><stop
         style="stop-color:#e1e1e1;stop-opacity:1;"
         offset="0"
         id="stop850" /><stop
         style="stop-color:#c4c4c4;stop-opacity:1;"
         offset="1"
         id="stop852" /></linearGradient><linearGradient
       x1="23.99999"
       y1="4.999989"
       x2="23.99999"
       y2="43"
       id="linearGradient4161-3"
       xlink:href="#linearGradient3924-0-6"
       gradientUnits="userSpaceOnUse"
       gradientTransform="matrix(0.67567568,0,0,0.67567568,-0.21621703,-0.21620627)" /><linearGradient
       id="linearGradient3924-0-6"><stop
         id="stop3926-6-7"
         style="stop-color:#ffffff;stop-opacity:1"
         offset="0" /><stop
         id="stop3928-3-5"
         style="stop-color:#ffffff;stop-opacity:0.23529412"
         offset="0.06316455" /><stop
         id="stop3930-2-3"
         style="stop-color:#ffffff;stop-opacity:0.15686275"
         offset="0.95056331" /><stop
         id="stop3932-62-5"
         style="stop-color:#ffffff;stop-opacity:0.39215687"
         offset="1" /></linearGradient><radialGradient
       cx="7.3170753"
       cy="10.028383"
       r="12.671875"
       fx="6.7868452"
       fy="10.028383"
       id="radialGradient5600-7"
       xlink:href="#linearGradient3846"
       gradientUnits="userSpaceOnUse"
       gradientTransform="matrix(-3.238158e-8,4.3403206,-5.0505548,-3.9115997e-8,66.6489,-39.758453)" /><radialGradient
       cx="4.9929786"
       cy="43.5"
       r="2.5"
       fx="4.9929786"
       fy="43.5"
       id="radialGradient2976-6"
       xlink:href="#linearGradient3688-166-749-6"
       gradientUnits="userSpaceOnUse"
       gradientTransform="matrix(2.003784,0,0,1.4,27.98813,-17.4)" /><radialGradient
       cx="4.9929786"
       cy="43.5"
       r="2.5"
       fx="4.9929786"
       fy="43.5"
       id="radialGradient2978-1"
       xlink:href="#linearGradient3688-166-749-6"
       gradientUnits="userSpaceOnUse"
       gradientTransform="matrix(2.003784,0,0,1.4,-20.01187,-104.4)" /><linearGradient
       id="linearGradient4526"
       inkscape:swatch="solid"><stop
         style="stop-color:#ffffff;stop-opacity:1;"
         offset="0"
         id="stop4528" /></linearGradient><linearGradient
       id="linearGradient3846"><stop
         id="stop3848"
         style="stop-color:#fff3cb;stop-opacity:1"
         offset="0" /><stop
         id="stop3850"
         style="stop-color:#fdde76;stop-opacity:1"
         offset="0.26238" /><stop
         id="stop3852"
         style="stop-color:#f9c440;stop-opacity:1"
         offset="0.66093999" /><stop
         id="stop3854"
         style="stop-color:#e48b20;stop-opacity:1"
         offset="1" /></linearGradient></defs><sodipodi:namedview
     id="namedview6"
     pagecolor="#ffffff"
     bordercolor="#000000"
     borderopacity="0.25"
     inkscape:showpageshadow="2"
     inkscape:pageopacity="0.0"
     inkscape:pagecheckerboard="0"
     inkscape:deskcolor="#d1d1d1"
     showgrid="false"
     inkscape:zoom="61.125"
     inkscape:cx="8.4171779"
     inkscape:cy="9.2351738"
     inkscape:window-width="2560"
     inkscape:window-height="1381"
     inkscape:window-x="0"
     inkscape:window-y="32"
     inkscape:window-maximized="1"
     inkscape:current-layer="svg4" /><g
     id="g248"
     transform="translate(-21.515069,-7.9788424)" /><g
     id="g1220"
     transform="matrix(0.4676871,0,0,0.46811691,0.55471695,-0.17103913)"><g
       id="g375"><path
         d="m 17.583805,9.1425059 v 3.3242101 h 3.32421 V 9.1425059 Z m 3.32421,3.3242101 v 3.32421 h 3.32421 v -3.32421 z m 3.32421,0 c -16.0929429,-7.0817372 -8.046472,-3.5408684 0,0 z m 0,3.32421 v 3.32421 h 3.324209 v -3.32421 z m -3.32421,0 h -3.32421 v 3.32421 h 3.32421 z"
         style="fill:#e5e5e5;fill-opacity:1;stroke-width:1.66209"
         id="path1145-3-2"
         sodipodi:nodetypes="cccccccccccccccccccccc" /><path
         d="m 14.250815,19.116835 v 3.324209 h 3.324209 v -3.324209 z m 3.324209,3.324209 v 3.32421 h 3.324211 v -3.32421 z m 3.324211,0 h 3.324209 v -3.324209 h -3.324209 z m 0,3.32421 c -13.8709496,-15.9474292 -6.935475,-7.973715 0,0 z m -3.324211,0 c -11.6548089,-15.9474292 -5.827405,-7.973715 0,0 z"
         style="fill:#e5e5e5;fill-opacity:1;stroke-width:1.66209"
         id="path1145-3-0"
         sodipodi:nodetypes="ccccccccccccccccccc" /><path
         d="m 14.253886,25.76164 c -6.9123282,-19.3491659 -3.456164,-9.674583 0,0 z m 0,0 v 3.32421 h 3.324211 v -3.32421 z m 3.324211,0 c -9.1284689,-19.3491659 -4.564234,-9.674583 0,0 z m 0,3.32421 c -13.8709502,-15.947429 -6.935475,-7.973715 0,0 z m -3.324211,0 c -11.6548095,-15.947429 -5.8274055,-7.973715 0,0 z"
         style="fill:#e5e5e5;fill-opacity:1;stroke-width:1.66209"
         id="path1145-3-0-3"
         sodipodi:nodetypes="ccccccccccccc" /><path
         id="path1323-3"
         style="font-variation-settings:normal;opacity:1;vector-effect:none;fill:#313131;fill-opacity:1;stroke-width:1.66166;stroke-linecap:butt;stroke-linejoin:miter;stroke-miterlimit:4;stroke-dasharray:none;stroke-dashoffset:0;stroke-opacity:1;-inkscape-stroke:none;stop-color:#000000;stop-opacity:1"
         d="m 10.93829,12.469951 c -4.4527957,-4.4517367 -2.2263978,-2.225868 0,0 z m 0,0 v 3.323302 h 3.323303 v -3.323302 z m 3.323303,0 h 3.323301 V 9.1466502 h -3.323301 z m 0,3.323302 v 3.323302 h 3.323301 v -3.323302 z m -3.323303,0 H 7.6149897 v 3.323302 H 10.93829 Z"
         sodipodi:nodetypes="cccccccccccccccccccccc" /><path
         id="path1323-3-9"
         style="font-variation-settings:normal;opacity:1;vector-effect:none;fill:#313131;fill-opacity:1;stroke-width:1.66166;stroke-linecap:butt;stroke-linejoin:miter;stroke-miterlimit:4;stroke-dasharray:none;stroke-dashoffset:0;stroke-opacity:1;-inkscape-stroke:none;stop-color:#000000"
         d="m 14.251112,15.79681 v 3.323301 h 3.323301 V 15.79681 Z m 3.323301,3.323301 v 3.323302 h 3.323303 v -3.323302 z m 3.323303,0 h 3.323301 V 15.79681 h -3.323301 z m 0,3.323302 c -13.8699369,-13.7328685 -6.934969,-6.866434 0,0 z m -3.323303,0 c -12.1643662,-15.4827695 -6.082183,-7.741385 0,0 z"
         sodipodi:nodetypes="ccccccccccccccccccc" /><path
         id="path1323-3-9-3"
         style="font-variation-settings:normal;vector-effect:none;fill:#313131;fill-opacity:1;stroke-width:1.66166;stroke-linecap:butt;stroke-linejoin:miter;stroke-miterlimit:4;stroke-dasharray:none;stroke-dashoffset:0;stroke-opacity:1;-inkscape-stroke:none;stop-color:#000000"
         d="m 14.248977,22.443188 c 9.022374,-9.617611 4.511187,-4.808806 0,0 z m 0,0 v 3.323302 h 3.323303 v -3.323302 z m 3.323303,0 c 6.806839,-9.617611 3.40342,-4.808806 0,0 z m 0,3.323302 c -13.8699378,-13.732867 -6.934969,-6.866434 0,0 z m -3.323303,0 c -12.1643668,-15.482768 -6.0821839,-7.741385 0,0 z"
         sodipodi:nodetypes="ccccccccccccc" /><path
         id="path1323-3-3"
         style="font-variation-settings:normal;opacity:1;vector-effect:none;fill:#313131;fill-opacity:1;stroke-width:1.66166;stroke-linecap:butt;stroke-linejoin:miter;stroke-miterlimit:4;stroke-dasharray:none;stroke-dashoffset:0;stroke-opacity:1;-inkscape-stroke:none;stop-color:#000000"
         d="m 10.928752,22.442103 c -7.2239609,-13.7319952 -3.6119804,-6.865998 0,0 z m 0,0 h 3.323301 v -3.323301 h -3.323301 z"
         sodipodi:nodetypes="ccccccc" /><path
         id="path1323-3-6"
         style="font-variation-settings:normal;opacity:1;vector-effect:none;fill:#313131;fill-opacity:1;stroke-width:1.66166;stroke-linecap:butt;stroke-linejoin:miter;stroke-miterlimit:4;stroke-dasharray:none;stroke-dashoffset:0;stroke-opacity:1;-inkscape-stroke:none;stop-color:#000000"
         d="m 20.911616,12.46425 c -11.1016797,-4.447936 -5.55084,-2.223968 0,0 z m 3.323303,3.323302 c -13.317215,-6.6634707 -6.658607,-3.331735 0,0 z M 20.911616,12.46425 h -3.323301 v 3.323302 h 3.323301 z"
         sodipodi:nodetypes="ccccccccc" /><path
         d="m 10.937239,9.1486089 c -7.2296189,-4.8696659 -3.6148094,-2.434833 0,0 z m 0,0 V 12.472819 H 14.26145 V 9.1486089 Z m 3.324211,0 h 3.324209 V 5.8243998 H 14.26145 Z m 0,3.3242101 v 3.32421 h 3.324209 v -3.32421 z m -3.324211,0 H 7.6130304 v 3.32421 h 3.3242086 z"
         style="fill:#e5e5e5;fill-opacity:1;stroke-width:1.66209"
         id="path1145-3"
         sodipodi:nodetypes="cccccccccccccccccccccc" /><path
         d="m 4.2823009,15.794864 v 3.32421 h 3.3242095 v -3.32421 z m 3.3242095,3.32421 v 3.32421 h 3.3242106 v -3.32421 z m 3.3242106,0 h 3.324209 v -3.32421 h -3.324209 z m 0,3.32421 c -7.2252736,-13.7327825 -3.6126367,-6.866391 0,0 z m -3.3242106,0 c -5.0091333,-13.7327825 -2.5045666,-6.866391 0,0 z"
         style="fill:#e5e5e5;fill-opacity:1;stroke-width:1.66209"
         id="path1145-3-1"
         sodipodi:nodetypes="ccccccccccccccccccc" /><path
         d="m 10.932957,25.76639 c -7.2267643,-15.9481865 -3.613382,-7.974093 0,0 z m 0,0 h 3.323301 v -3.323301 h -3.323301 z"
         style="fill:#e5e5e5;fill-opacity:1;stroke-width:0.999995"
         id="path1145-3-6"
         sodipodi:nodetypes="ccccccc" /></g></g></svg>
