<?xml version="1.0" encoding="UTF-8" standalone="no"?>
<svg
   height="16px"
   viewBox="0 0 16 16"
   width="16px"
   version="1.1"
   id="svg4"
   sodipodi:docname="draw-eraser.svg"
   inkscape:version="1.2.2 (b0a8486541, 2022-12-01)"
   xml:space="preserve"
   xmlns:inkscape="http://www.inkscape.org/namespaces/inkscape"
   xmlns:sodipodi="http://sodipodi.sourceforge.net/DTD/sodipodi-0.dtd"
   xmlns:xlink="http://www.w3.org/1999/xlink"
   xmlns="http://www.w3.org/2000/svg"
   xmlns:svg="http://www.w3.org/2000/svg"><defs
     id="defs8"><clipPath
       id="a"><path
         d="m 13,11 a 3,3 0 1 0 -3,3 3,3 0 0 0 3,-3 z m -3,5 a 5,5 0 1 1 5,-5 5,5 0 0 1 -5,5 z M 6.42,2.56 5.75,3.2 A 2,2 0 0 1 4.37,3.76 H 2 A 1.89,1.89 0 0 0 0,5.51 v 10.54 a 1.89,1.89 0 0 0 2,1.76 h 16 a 1.89,1.89 0 0 0 2,-1.76 V 5.51 A 1.89,1.89 0 0 0 18,3.75 H 15.63 A 2,2 0 0 1 14.25,3.19 L 13.58,2.55 A 2,2 0 0 0 12.2,2 H 7.8 A 2,2 0 0 0 6.42,2.56 Z"
         clip-rule="evenodd"
         id="path2-3" /></clipPath><linearGradient
       id="linearGradient1125"><stop
         id="stop1121"
         offset="0"
         style="stop-color:#fe9ab8;stop-opacity:1" /><stop
         id="stop1123"
         offset="1"
         style="stop-color:#f4679d;stop-opacity:1" /></linearGradient><linearGradient
       id="linearGradient964"><stop
         offset="0"
         style="stop-color:#ffffff;stop-opacity:1"
         id="stop956" /><stop
         offset="0"
         style="stop-color:#ffffff;stop-opacity:0.23529412"
         id="stop958" /><stop
         offset="1"
         style="stop-color:#ffffff;stop-opacity:0.15686275"
         id="stop960" /><stop
         offset="1"
         style="stop-color:#ffffff;stop-opacity:0.39215687"
         id="stop962" /></linearGradient><radialGradient
       r="11.9021"
       fy="1294.5182"
       fx="1162.077"
       cy="1294.5182"
       cx="1162.077"
       gradientTransform="matrix(0.8794595,-0.11013256,0.06311856,0.75017698,-1087.4363,-828.83986)"
       gradientUnits="userSpaceOnUse"
       id="radialGradient12748"
       xlink:href="#linearGradient12733" /><linearGradient
       id="linearGradient12733"><stop
         id="stop12735"
         offset="0"
         style="stop-color:#000000;stop-opacity:1;" /><stop
         id="stop12737"
         offset="1"
         style="stop-color:#000000;stop-opacity:0;" /></linearGradient><linearGradient
       gradientTransform="translate(1)"
       gradientUnits="userSpaceOnUse"
       y2="14"
       x2="13"
       y1="7"
       x1="13"
       id="linearGradient1105"
       xlink:href="#linearGradient964" /><linearGradient
       gradientTransform="translate(1)"
       gradientUnits="userSpaceOnUse"
       y2="18.964161"
       x2="14.019018"
       y1="6.002409"
       x1="14.019018"
       id="linearGradient1127"
       xlink:href="#linearGradient1125" /></defs><sodipodi:namedview
     id="namedview6"
     pagecolor="#ffffff"
     bordercolor="#000000"
     borderopacity="0.25"
     inkscape:showpageshadow="2"
     inkscape:pageopacity="0.0"
     inkscape:pagecheckerboard="0"
     inkscape:deskcolor="#d1d1d1"
     showgrid="false"
     inkscape:zoom="61.125"
     inkscape:cx="9.2842536"
     inkscape:cy="9.5296524"
     inkscape:window-width="2560"
     inkscape:window-height="1381"
     inkscape:window-x="0"
     inkscape:window-y="32"
     inkscape:window-maximized="1"
     inkscape:current-layer="g1382" /><g
     id="g248"
     transform="translate(-21.515069,-7.9788424)" /><g
     id="g1382"
     transform="matrix(0.57386453,0,0,0.57386453,0.82244016,0.39723415)"><path
       id="path12152"
       d="M 3.4358,19.505107 H 17.1216 L 21.5051,11.79027 V 6.6586207 L 20.3566,5.4916282 9.5729,5.553781 8.0465,6.6723337 3.4725,14.806061 Z"
       style="opacity:1;fill:url(#linearGradient1127);fill-opacity:1;fill-rule:evenodd;stroke:#bc245d;stroke-width:0.989831px;stroke-linecap:butt;stroke-linejoin:round;stroke-opacity:0.5" /><path
       id="path12154"
       d="m 4.5755,14.492239 11.8844,0.04439 4.0488,-7.2650685 -0.3918,-0.7800668 H 9.2911 L 4.6293,14.551827 Z"
       style="opacity:0.5;fill:#ffffff;fill-opacity:0.5;fill-rule:evenodd;stroke:url(#linearGradient1105);stroke-width:0.982606px;stroke-linecap:butt;stroke-linejoin:round;stroke-opacity:1" /><path
       id="path12165"
       d="m 4.4966266,15.521903 v 2.990634 H 16.371627"
       style="opacity:0.2;fill:none;fill-rule:evenodd;stroke:#ffffff;stroke-width:0.993253px;stroke-linecap:round;stroke-linejoin:round;stroke-opacity:1" /></g></svg>
