<?xml version="1.0" encoding="UTF-8" standalone="no"?>
<svg
   width="24"
   height="24"
   id="svg3495"
   version="1.1"
   sodipodi:docname="draw-text.svg"
   inkscape:version="1.2.2 (b0a8486541, 2022-12-01)"
   xmlns:inkscape="http://www.inkscape.org/namespaces/inkscape"
   xmlns:sodipodi="http://sodipodi.sourceforge.net/DTD/sodipodi-0.dtd"
   xmlns:xlink="http://www.w3.org/1999/xlink"
   xmlns="http://www.w3.org/2000/svg"
   xmlns:svg="http://www.w3.org/2000/svg"
   xmlns:rdf="http://www.w3.org/1999/02/22-rdf-syntax-ns#"
   xmlns:cc="http://creativecommons.org/ns#"
   xmlns:dc="http://purl.org/dc/elements/1.1/">
  <sodipodi:namedview
     id="namedview30"
     pagecolor="#505050"
     bordercolor="#eeeeee"
     borderopacity="1"
     inkscape:showpageshadow="0"
     inkscape:pageopacity="0"
     inkscape:pagecheckerboard="0"
     inkscape:deskcolor="#505050"
     showgrid="false"
     inkscape:zoom="28.814601"
     inkscape:cx="9.3528971"
     inkscape:cy="12.962178"
     inkscape:window-width="2560"
     inkscape:window-height="1381"
     inkscape:window-x="0"
     inkscape:window-y="32"
     inkscape:window-maximized="1"
     inkscape:current-layer="svg3495" />
  <defs
     id="defs3497">
    <linearGradient
       id="linearGradient3821">
      <stop
         style="stop-color:#7a7a7a;stop-opacity:1;"
         offset="0"
         id="stop3823" />
      <stop
         style="stop-color:#8c8c8c;stop-opacity:1;"
         offset="1"
         id="stop3825" />
    </linearGradient>
    <linearGradient
       xlink:href="#linearGradient3821"
       id="linearGradient3800"
       x1="12"
       y1="22"
       x2="12"
       y2="0"
       gradientUnits="userSpaceOnUse"
       gradientTransform="matrix(0.8343564,0,0,0.8343564,1.8548544,5.3251621)" />
    <linearGradient
       id="linearGradient3952">
      <stop
         style="stop-color:#000000;stop-opacity:1;"
         offset="0"
         id="stop3954" />
      <stop
         style="stop-color:#000000;stop-opacity:0;"
         offset="1"
         id="stop3956" />
    </linearGradient>
    <linearGradient
       id="linearGradient3944">
      <stop
         style="stop-color:#000000;stop-opacity:1;"
         offset="0"
         id="stop3946" />
      <stop
         style="stop-color:#000000;stop-opacity:0;"
         offset="1"
         id="stop3948" />
    </linearGradient>
    <linearGradient
       id="linearGradient3960">
      <stop
         style="stop-color:#000000;stop-opacity:0;"
         offset="0"
         id="stop3962" />
      <stop
         id="stop3970"
         offset="0.5"
         style="stop-color:#000000;stop-opacity:1;" />
      <stop
         style="stop-color:#000000;stop-opacity:0;"
         offset="1"
         id="stop3964" />
    </linearGradient>
    <radialGradient
       xlink:href="#linearGradient3952"
       id="radialGradient4051"
       gradientUnits="userSpaceOnUse"
       gradientTransform="matrix(0.8343564,0,0,0.6257673,-16.500986,-7.7116566)"
       cx="40"
       cy="43.5"
       fx="40"
       fy="43.5"
       r="2" />
    <radialGradient
       xlink:href="#linearGradient3944"
       id="radialGradient4053"
       gradientUnits="userSpaceOnUse"
       gradientTransform="matrix(1,0,0,0.75,-3.9997973,-11.625)"
       cx="9"
       cy="43.5"
       fx="9"
       fy="43.5"
       r="2" />
    <linearGradient
       xlink:href="#linearGradient3960"
       id="linearGradient4055"
       gradientUnits="userSpaceOnUse"
       gradientTransform="translate(-8.9997973,-22.5)"
       x1="25"
       y1="45"
       x2="25"
       y2="42" />
  </defs>
  <metadata
     id="metadata3500">
    <rdf:RDF>
      <cc:Work
         rdf:about="">
        <dc:format>image/svg+xml</dc:format>
        <dc:type
           rdf:resource="http://purl.org/dc/dcmitype/StillImage" />
        <dc:title />
      </cc:Work>
    </rdf:RDF>
  </metadata>
  <path
     id="path11643-3-2"
     d="m 5.6094582,5.7423403 v 0.4171782 2.5030692 0.4171782 h 0.4171782 7.0920296 c 0.06847,0 0.325172,0.1112998 0.521473,0.3128837 0.1963,0.2015838 0.312883,0.4860985 0.312883,0.5214727 V 10.748479 H 8.1125274 c -1.2666626,0 -2.4002946,0.527594 -3.1288365,1.35583 l -0.026074,0.02607 c -0.6972182,0.806891 -1.0256174,1.803616 -1.0168719,2.789879 0.00834,1.000994 0.3589965,2.014157 1.0690192,2.815953 0.7220334,0.81536 1.8465352,1.355829 3.1027628,1.355829 h 6.257674 1.251534 1.251535 0.417178 v -0.417178 c -0.03036,-0.902614 0,-1.585137 0,-2.503069 V 9.9141223 c 0,-2.2700259 -1.842899,-4.171782 -4.171782,-4.171782 H 6.0266364 Z m 2.5030692,8.3435647 h 5.8404946 v 1.668713 H 8.1125274 c -0.4212027,0 -0.4529435,-0.04288 -0.5996936,-0.208589 C 7.3892944,15.406526 7.2801743,15.145941 7.278171,14.920261 7.276441,14.678742 7.3891832,14.405418 7.4867601,14.294494 7.618353,14.144901 7.6603401,14.085905 8.1125274,14.085905 Z"
     style="color:#000000;font-style:normal;font-variant:normal;font-weight:normal;font-stretch:normal;line-height:normal;font-family:Sans;-inkscape-font-specification:Sans;text-indent:0;text-align:start;text-decoration:none;text-decoration-line:none;letter-spacing:normal;word-spacing:normal;text-transform:none;writing-mode:lr-tb;direction:ltr;baseline-shift:baseline;text-anchor:start;display:inline;overflow:visible;visibility:visible;opacity:1;fill:url(#linearGradient3800);fill-opacity:1;stroke:none;stroke-width:1.66871;marker:none;enable-background:accumulate" />
  <path
     style="color:#000000;font-style:normal;font-variant:normal;font-weight:normal;font-stretch:normal;line-height:normal;font-family:Sans;-inkscape-font-specification:Sans;text-indent:0;text-align:start;text-decoration:none;text-decoration-line:none;letter-spacing:normal;word-spacing:normal;text-transform:none;writing-mode:lr-tb;direction:ltr;baseline-shift:baseline;text-anchor:start;display:inline;overflow:visible;visibility:visible;opacity:0.61;fill:none;stroke:#000000;stroke-width:0.834356;stroke-miterlimit:4;stroke-dasharray:none;stroke-opacity:1;marker:none;enable-background:accumulate"
     d="m 5.6094582,5.7423403 v 0.4171782 2.5030692 0.4171782 h 0.4171782 7.0920296 c 0.06847,0 0.325172,0.1112998 0.521473,0.3128837 0.1963,0.2015838 0.312883,0.4860985 0.312883,0.5214727 V 10.748479 H 8.1125274 c -1.2666626,0 -2.4002946,0.527594 -3.1288365,1.35583 l -0.026074,0.02607 c -0.6972182,0.806891 -1.0256174,1.803616 -1.0168719,2.789879 0.00834,1.000994 0.3589965,2.014157 1.0690192,2.815953 0.7220334,0.81536 1.8465352,1.355829 3.1027628,1.355829 h 6.257674 1.251534 1.251535 0.417178 v -0.417178 c -0.03036,-0.902614 0,-1.585137 0,-2.503069 V 9.9141223 c 0,-2.2700259 -1.842899,-4.171782 -4.171782,-4.171782 H 6.0266364 Z m 2.5030692,8.3435647 h 5.8404946 v 1.668713 H 8.1125274 c -0.4212027,0 -0.4529435,-0.04288 -0.5996936,-0.208589 C 7.3892944,15.406526 7.2801743,15.145941 7.278171,14.920261 7.276441,14.678742 7.3891832,14.405418 7.4867601,14.294494 7.618353,14.144901 7.6603401,14.085905 8.1125274,14.085905 Z"
     id="path3791" />
  <path
     id="path3802"
     d="m 6.0266364,6.1595185 v 0.8343564 h 7.0920296 c 2.101772,0 3.754604,1.7103656 3.754604,3.7546041 V 9.9141223 c 0,-2.0442382 -1.652832,-3.7546038 -3.754604,-3.7546038 z m 2.085891,5.0061385 c -1.1508197,0 -2.1711285,0.4924 -2.8159528,1.225462 h -0.026074 l -0.026074,0.02607 c -0.6119588,0.722213 -0.8943049,1.623327 -0.8865037,2.503069 0.00116,0.139219 0.010226,0.278825 0.026074,0.417179 0.072195,-0.740623 0.3462484,-1.479071 0.86043,-2.085891 l 0.026074,-0.02607 h 0.026074 C 5.9413992,12.492415 6.961708,12.000015 8.1125277,12.000015 h 5.8404943 0.417179 v -0.41718 -0.417178 H 13.953022 Z M 6.9131401,15.33744 c -0.034965,0.129545 -0.053256,0.262249 -0.052147,0.417178 0.00317,0.357289 0.1253039,0.671316 0.3389573,0.912577 0.071433,0.08067 0.1889716,0.190621 0.3650309,0.260736 0.1760593,0.07012 0.3227894,0.07822 0.5475464,0.07822 h 5.8404943 0.417179 V 16.588974 16.171796 H 13.953022 8.1125274 c -0.224757,0 -0.3714871,-0.0081 -0.5475464,-0.07822 C 7.3889217,16.023456 7.2713827,15.913504 7.1999501,15.832839 7.0749,15.691631 6.9699839,15.522587 6.9131401,15.33744 Z"
     style="color:#000000;font-style:normal;font-variant:normal;font-weight:normal;font-stretch:normal;line-height:normal;font-family:Sans;-inkscape-font-specification:Sans;text-indent:0;text-align:start;text-decoration:none;text-decoration-line:none;letter-spacing:normal;word-spacing:normal;text-transform:none;writing-mode:lr-tb;direction:ltr;baseline-shift:baseline;text-anchor:start;display:inline;overflow:visible;visibility:visible;opacity:0.2;fill:#ffffff;fill-opacity:1;stroke:none;stroke-width:1.66871;marker:none;enable-background:accumulate" />
  <path
     id="rect3940"
     d="m 16.87327,18.257687 v 2.503069 h 0.417178 c 0.69335,0 1.251535,-0.558184 1.251535,-1.251534 0,-0.693351 -0.558185,-1.251535 -1.251535,-1.251535 z"
     style="opacity:0.2;fill:url(#radialGradient4051);fill-opacity:1;stroke:none;stroke-width:0.834356" />
  <path
     id="path13619"
     d="m 15.204388,2.8221263 v 2.5030692 h 0.834356 L 16.8731,6.1726763 V 17.787886 l -0.834356,0.887013 h -0.834356 v 2.503069 h 5.840494 V 18.674899 H 20.210526 L 19.37617,17.898505 V 6.1595185 l 0.834356,-0.834323 h 0.834356 V 2.8221263 Z"
     style="display:inline;opacity:1;fill:#000000;fill-opacity:1;fill-rule:evenodd;stroke:none;stroke-width:0.834356pt;stroke-opacity:1" />
  <path
     id="path13667"
     style="display:inline;opacity:1;fill:none;fill-rule:evenodd;stroke:#ffffff;stroke-width:0.834356px;stroke-linecap:butt;stroke-linejoin:miter;stroke-opacity:1"
     d="m 16.013463,4.0736275 c 0.834356,0 1.276816,0 1.276816,0 0,0 0.834356,0 0.834356,0.8343564 0,0.8343564 0,14.1840591 0,14.1840591 0,0 -0.07342,0.834357 -0.908114,0.834357 -0.834356,0 -1.203058,0 -1.203058,0 M 20.22204,4.0736275 c -0.834356,0 -1.276816,0 -1.276816,0 0,0 -0.834356,0 -0.834356,0.8343564 0,0.8343564 0,14.1840591 0,14.1840591 0,0 0.07342,0.834357 0.908114,0.834357 0.834356,0 1.203058,0 1.203058,0" />
</svg>
