<?xml version="1.0" encoding="UTF-8" standalone="no"?>
<svg
   height="16px"
   viewBox="0 0 16 16"
   width="16px"
   version="1.1"
   id="svg4"
   sodipodi:docname="draw-rectangle.svg"
   inkscape:version="1.2.2 (b0a8486541, 2022-12-01)"
   xml:space="preserve"
   xmlns:inkscape="http://www.inkscape.org/namespaces/inkscape"
   xmlns:sodipodi="http://sodipodi.sourceforge.net/DTD/sodipodi-0.dtd"
   xmlns:xlink="http://www.w3.org/1999/xlink"
   xmlns="http://www.w3.org/2000/svg"
   xmlns:svg="http://www.w3.org/2000/svg"><defs
     id="defs8"><clipPath
       id="a"><path
         d="m 13,11 a 3,3 0 1 0 -3,3 3,3 0 0 0 3,-3 z m -3,5 a 5,5 0 1 1 5,-5 5,5 0 0 1 -5,5 z M 6.42,2.56 5.75,3.2 A 2,2 0 0 1 4.37,3.76 H 2 A 1.89,1.89 0 0 0 0,5.51 v 10.54 a 1.89,1.89 0 0 0 2,1.76 h 16 a 1.89,1.89 0 0 0 2,-1.76 V 5.51 A 1.89,1.89 0 0 0 18,3.75 H 15.63 A 2,2 0 0 1 14.25,3.19 L 13.58,2.55 A 2,2 0 0 0 12.2,2 H 7.8 A 2,2 0 0 0 6.42,2.56 Z"
         clip-rule="evenodd"
         id="path2-3" /></clipPath><linearGradient
       id="linearGradient870"><stop
         id="stop866"
         offset="0"
         style="stop-color:#cd9ef7;stop-opacity:1" /><stop
         id="stop868"
         offset="1"
         style="stop-color:#a56de2;stop-opacity:1" /></linearGradient><linearGradient
       gradientTransform="matrix(0.45945947,0,0,0.45945947,0.9742189,0.9717503)"
       gradientUnits="userSpaceOnUse"
       xlink:href="#linearGradient3924-64"
       id="linearGradient5397"
       y2="41.414425"
       x2="23.99999"
       y1="6.5908961"
       x1="23.99999" /><linearGradient
       id="linearGradient3924-64"><stop
         offset="0"
         style="stop-color:#ffffff;stop-opacity:1"
         id="stop3926-3-6" /><stop
         offset="0"
         style="stop-color:#ffffff;stop-opacity:0.23529412"
         id="stop3928-0" /><stop
         offset="1"
         style="stop-color:#ffffff;stop-opacity:0.15686275"
         id="stop3930-3-59" /><stop
         offset="1"
         style="stop-color:#ffffff;stop-opacity:0.39215687"
         id="stop3932-0" /></linearGradient><radialGradient
       gradientTransform="matrix(2.003784,0,0,1.4,27.98813,-17.4)"
       gradientUnits="userSpaceOnUse"
       xlink:href="#linearGradient3688-166-749-9"
       id="radialGradient3082-6"
       fy="43.5"
       fx="4.9929786"
       r="2.5"
       cy="43.5"
       cx="4.9929786" /><linearGradient
       id="linearGradient3688-166-749-9"><stop
         offset="0"
         style="stop-color:#181818;stop-opacity:1"
         id="stop2883-2" /><stop
         offset="1"
         style="stop-color:#181818;stop-opacity:0"
         id="stop2885-2" /></linearGradient><radialGradient
       gradientTransform="matrix(2.003784,0,0,1.4,-20.01187,-104.4)"
       gradientUnits="userSpaceOnUse"
       xlink:href="#linearGradient3688-166-749-9"
       id="radialGradient3084-4"
       fy="43.5"
       fx="4.9929786"
       r="2.5"
       cy="43.5"
       cx="4.9929786" /><linearGradient
       gradientUnits="userSpaceOnUse"
       xlink:href="#linearGradient3702-501-757-1"
       id="linearGradient3086-8"
       y2="39.999443"
       x2="25.058096"
       y1="47.027729"
       x1="25.058096" /><linearGradient
       id="linearGradient3702-501-757-1"><stop
         offset="0"
         style="stop-color:#181818;stop-opacity:0"
         id="stop2895-2" /><stop
         offset="0.5"
         style="stop-color:#181818;stop-opacity:1"
         id="stop2897-89" /><stop
         offset="1"
         style="stop-color:#181818;stop-opacity:0"
         id="stop2899-36" /></linearGradient><linearGradient
       gradientUnits="userSpaceOnUse"
       y2="21.532459"
       x2="13.608144"
       y1="2.5455263"
       x1="13.608144"
       id="linearGradient872"
       xlink:href="#linearGradient870" /><clipPath
       id="a-7"><path
         d="m 13,11 a 3,3 0 1 0 -3,3 3,3 0 0 0 3,-3 z m -3,5 a 5,5 0 1 1 5,-5 5,5 0 0 1 -5,5 z M 6.42,2.56 5.75,3.2 A 2,2 0 0 1 4.37,3.76 H 2 A 1.89,1.89 0 0 0 0,5.51 v 10.54 a 1.89,1.89 0 0 0 2,1.76 h 16 a 1.89,1.89 0 0 0 2,-1.76 V 5.51 A 1.89,1.89 0 0 0 18,3.75 H 15.63 A 2,2 0 0 1 14.25,3.19 L 13.58,2.55 A 2,2 0 0 0 12.2,2 H 7.8 A 2,2 0 0 0 6.42,2.56 Z"
         clip-rule="evenodd"
         id="path2-3-5" /></clipPath></defs><sodipodi:namedview
     id="namedview6"
     pagecolor="#ffffff"
     bordercolor="#000000"
     borderopacity="0.25"
     inkscape:showpageshadow="2"
     inkscape:pageopacity="0.0"
     inkscape:pagecheckerboard="0"
     inkscape:deskcolor="#d1d1d1"
     showgrid="false"
     inkscape:zoom="45.254834"
     inkscape:cx="9.9878833"
     inkscape:cy="10.54031"
     inkscape:window-width="1823"
     inkscape:window-height="1194"
     inkscape:window-x="347"
     inkscape:window-y="120"
     inkscape:window-maximized="0"
     inkscape:current-layer="svg4" /><g
     id="g248"
     transform="translate(-21.515069,-7.9788424)" /><g
     id="g1973"
     transform="matrix(0.51816107,0,0,0.51816107,1.7820677,1.7820533)"><rect
       width="19.000002"
       height="19.000002"
       rx="2.4170544"
       ry="2.2937636"
       x="2.4999981"
       y="2.5000257"
       id="rect5505-21-8"
       style="color:#000000;display:inline;overflow:visible;visibility:visible;opacity:1;fill:url(#linearGradient872);fill-opacity:1;fill-rule:nonzero;stroke:none;stroke-width:1;marker:none;enable-background:accumulate" /><rect
       width="17"
       height="17"
       x="3.5012493"
       y="3.4987736"
       id="rect6741-9"
       style="opacity:0.5;fill:none;stroke:url(#linearGradient5397);stroke-width:1;stroke-linecap:round;stroke-linejoin:round;stroke-miterlimit:4;stroke-dasharray:none;stroke-dashoffset:0;stroke-opacity:1"
       ry="1.2354" /><rect
       width="19.000002"
       height="19.000002"
       rx="2.133559"
       ry="2.2937641"
       x="2.4999981"
       y="2.5000257"
       id="rect5505-21-8-1"
       style="color:#000000;display:inline;overflow:visible;visibility:visible;opacity:0.5;fill:none;stroke:#7239b3;stroke-width:1;stroke-linecap:round;stroke-linejoin:round;stroke-miterlimit:4;stroke-dasharray:none;stroke-dashoffset:0;stroke-opacity:1;marker:none;enable-background:accumulate" /></g></svg>
