<?xml version="1.0" encoding="UTF-8" standalone="no"?>
<svg
   height="16px"
   viewBox="0 0 16 16"
   width="16px"
   version="1.1"
   id="svg4"
   sodipodi:docname="edit-save-symbolic.svg"
   inkscape:version="1.2.2 (b0a8486541, 2022-12-01)"
   xml:space="preserve"
   xmlns:inkscape="http://www.inkscape.org/namespaces/inkscape"
   xmlns:sodipodi="http://sodipodi.sourceforge.net/DTD/sodipodi-0.dtd"
   xmlns="http://www.w3.org/2000/svg"
   xmlns:svg="http://www.w3.org/2000/svg"><defs
     id="defs8"><clipPath
       id="a"><path
         d="m 13,11 a 3,3 0 1 0 -3,3 3,3 0 0 0 3,-3 z m -3,5 a 5,5 0 1 1 5,-5 5,5 0 0 1 -5,5 z M 6.42,2.56 5.75,3.2 A 2,2 0 0 1 4.37,3.76 H 2 A 1.89,1.89 0 0 0 0,5.51 v 10.54 a 1.89,1.89 0 0 0 2,1.76 h 16 a 1.89,1.89 0 0 0 2,-1.76 V 5.51 A 1.89,1.89 0 0 0 18,3.75 H 15.63 A 2,2 0 0 1 14.25,3.19 L 13.58,2.55 A 2,2 0 0 0 12.2,2 H 7.8 A 2,2 0 0 0 6.42,2.56 Z"
         clip-rule="evenodd"
         id="path2-3" /></clipPath></defs><sodipodi:namedview
     id="namedview6"
     pagecolor="#ffffff"
     bordercolor="#000000"
     borderopacity="0.25"
     inkscape:showpageshadow="2"
     inkscape:pageopacity="0.0"
     inkscape:pagecheckerboard="0"
     inkscape:deskcolor="#d1d1d1"
     showgrid="false"
     inkscape:zoom="21.610951"
     inkscape:cx="-10.434525"
     inkscape:cy="4.1876917"
     inkscape:window-width="2560"
     inkscape:window-height="1381"
     inkscape:window-x="0"
     inkscape:window-y="32"
     inkscape:window-maximized="1"
     inkscape:current-layer="svg4" /><g
     id="g248"
     transform="translate(-21.515069,-7.9788424)" /><path
     id="rect322"
     style="opacity:1;fill:#5e6167;stroke:none;stroke-width:0.777284;stroke-linecap:round;-inkscape-stroke:none;stop-color:#000000;fill-opacity:1"
     d="m 4.8338201,2.5590205 c -0.8612263,0 -1.5545654,0.693338 -1.5545654,1.5545656 v 7.7728279 c 0,0.861227 0.6933391,1.554565 1.5545654,1.554565 h 6.2182629 c 0.861228,0 1.554566,-0.693338 1.554566,-1.554565 V 4.1135861 c 0,-0.8612276 -0.693338,-1.5545656 -1.554566,-1.5545656 z m 0,0.7772828 h 6.2182629 c 0.430613,0 0.777284,0.3466691 0.777284,0.7772828 v 7.7728279 c 0,0.430612 -0.346671,0.777281 -0.777284,0.777281 H 4.8338201 c -0.4306132,0 -0.7772821,-0.346669 -0.7772821,-0.777281 V 4.1135861 c 0,-0.4306137 0.3466689,-0.7772828 0.7772821,-0.7772828 z m 2.647619,2.3318484 A 0.40185519,0.40185519 0 0 0 7.1656688,6.056793 V 7.9999999 H 5.9997445 C 5.7129283,8.0085548 5.5287116,8.4069076 5.7082628,8.631542 l 1.9432076,2.331848 a 0.40574161,0.40574161 0 0 0 0.5829621,0 L 10.17764,8.631542 C 10.357192,8.4069076 10.173008,8.00855 9.8861591,7.9999999 H 8.7202342 V 6.056793 A 0.40418704,0.40418704 0 0 0 8.3315932,5.6681517 H 7.5543099 a 0.39330508,0.39330508 0 0 0 -0.072869,0 z" /></svg>
