<?xml version="1.0" encoding="UTF-8" standalone="no"?>
<svg
   height="16px"
   viewBox="0 0 16 16"
   width="16px"
   version="1.1"
   id="svg4"
   sodipodi:docname="edit-undo-symbolic.svg"
   inkscape:version="1.2.2 (b0a8486541, 2022-12-01)"
   xml:space="preserve"
   xmlns:inkscape="http://www.inkscape.org/namespaces/inkscape"
   xmlns:sodipodi="http://sodipodi.sourceforge.net/DTD/sodipodi-0.dtd"
   xmlns="http://www.w3.org/2000/svg"
   xmlns:svg="http://www.w3.org/2000/svg"><defs
     id="defs8"><clipPath
       id="a"><path
         d="m 13,11 a 3,3 0 1 0 -3,3 3,3 0 0 0 3,-3 z m -3,5 a 5,5 0 1 1 5,-5 5,5 0 0 1 -5,5 z M 6.42,2.56 5.75,3.2 A 2,2 0 0 1 4.37,3.76 H 2 A 1.89,1.89 0 0 0 0,5.51 v 10.54 a 1.89,1.89 0 0 0 2,1.76 h 16 a 1.89,1.89 0 0 0 2,-1.76 V 5.51 A 1.89,1.89 0 0 0 18,3.75 H 15.63 A 2,2 0 0 1 14.25,3.19 L 13.58,2.55 A 2,2 0 0 0 12.2,2 H 7.8 A 2,2 0 0 0 6.42,2.56 Z"
         clip-rule="evenodd"
         id="path2-3" /></clipPath></defs><sodipodi:namedview
     id="namedview6"
     pagecolor="#ffffff"
     bordercolor="#000000"
     borderopacity="0.25"
     inkscape:showpageshadow="2"
     inkscape:pageopacity="0.0"
     inkscape:pagecheckerboard="0"
     inkscape:deskcolor="#d1d1d1"
     showgrid="false"
     inkscape:zoom="86.443804"
     inkscape:cx="4.2975897"
     inkscape:cy="7.2127784"
     inkscape:window-width="2560"
     inkscape:window-height="1381"
     inkscape:window-x="0"
     inkscape:window-y="32"
     inkscape:window-maximized="1"
     inkscape:current-layer="svg4" /><g
     id="g248"
     transform="translate(-21.515069,-7.9788424)" /><path
     d="M 9.7120737,12.663524 A 6.4168449,6.4168449 0 0 0 10.947341,11.969597 C 14.389373,9.4656381 12.561179,4.76654 8.3365687,4.8050513 V 2.5713992 l -5.086391,3.6462154 5.086391,3.633136 V 7.6708689 c 2.7364783,-0.1053614 3.8692893,2.8135011 1.509931,4.4905561 -0.2034555,0.144599 -0.4352501,0.281931 -0.6939293,0.409818 0,0 -4.2703882,1.865979 0.5587767,0.09228 z"
     fill="#666666"
     overflow="visible"
     style="color:#bebebe;stroke-width:0.726627;marker:none;fill:#5e6167;fill-opacity:1"
     id="path2261" /></svg>
