<?xml version="1.0" encoding="UTF-8" standalone="no"?>
<svg
   height="16px"
   viewBox="0 0 16 16"
   width="16px"
   version="1.1"
   id="svg4"
   sodipodi:docname="timer-reset-symbolic.svg"
   inkscape:version="1.2.2 (b0a8486541, 2022-12-01)"
   xml:space="preserve"
   xmlns:inkscape="http://www.inkscape.org/namespaces/inkscape"
   xmlns:sodipodi="http://sodipodi.sourceforge.net/DTD/sodipodi-0.dtd"
   xmlns="http://www.w3.org/2000/svg"
   xmlns:svg="http://www.w3.org/2000/svg"><defs
     id="defs8"><clipPath
       id="a"><path
         d="m 13,11 a 3,3 0 1 0 -3,3 3,3 0 0 0 3,-3 z m -3,5 a 5,5 0 1 1 5,-5 5,5 0 0 1 -5,5 z M 6.42,2.56 5.75,3.2 A 2,2 0 0 1 4.37,3.76 H 2 A 1.89,1.89 0 0 0 0,5.51 v 10.54 a 1.89,1.89 0 0 0 2,1.76 h 16 a 1.89,1.89 0 0 0 2,-1.76 V 5.51 A 1.89,1.89 0 0 0 18,3.75 H 15.63 A 2,2 0 0 1 14.25,3.19 L 13.58,2.55 A 2,2 0 0 0 12.2,2 H 7.8 A 2,2 0 0 0 6.42,2.56 Z"
         clip-rule="evenodd"
         id="path2-3" /></clipPath></defs><sodipodi:namedview
     id="namedview6"
     pagecolor="#ffffff"
     bordercolor="#000000"
     borderopacity="0.25"
     inkscape:showpageshadow="2"
     inkscape:pageopacity="0.0"
     inkscape:pagecheckerboard="0"
     inkscape:deskcolor="#d1d1d1"
     showgrid="false"
     inkscape:zoom="61.125"
     inkscape:cx="3.2310838"
     inkscape:cy="8.4171779"
     inkscape:window-width="2560"
     inkscape:window-height="1381"
     inkscape:window-x="0"
     inkscape:window-y="32"
     inkscape:window-maximized="1"
     inkscape:current-layer="svg4" /><g
     id="g248"
     transform="translate(-21.515069,-7.9788424)" /><path
     d="M 7.9999989,2.5590205 V 4.113586 A 4.6636965,4.6636965 0 1 0 12.663696,8.7772825 H 11.109128 A 3.109131,3.109131 0 1 1 7.9999989,5.6681514 V 7.222717 L 11.886413,4.8908687 Z"
     fill="#666666"
     overflow="visible"
     style="color:#bebebe;stroke-width:0.777283;marker:none;fill:#5e6167;fill-opacity:1"
     id="path3497" /></svg>
