<?xml version="1.0" encoding="UTF-8" standalone="no"?>
<svg
   height="16px"
   viewBox="0 0 16 16"
   width="16px"
   version="1.1"
   id="svg4"
   sodipodi:docname="window-close-symbolic.svg"
   inkscape:version="1.2.2 (b0a8486541, 2022-12-01)"
   xml:space="preserve"
   xmlns:inkscape="http://www.inkscape.org/namespaces/inkscape"
   xmlns:sodipodi="http://sodipodi.sourceforge.net/DTD/sodipodi-0.dtd"
   xmlns="http://www.w3.org/2000/svg"
   xmlns:svg="http://www.w3.org/2000/svg"><defs
     id="defs8"><clipPath
       id="a"><path
         d="m 13,11 a 3,3 0 1 0 -3,3 3,3 0 0 0 3,-3 z m -3,5 a 5,5 0 1 1 5,-5 5,5 0 0 1 -5,5 z M 6.42,2.56 5.75,3.2 A 2,2 0 0 1 4.37,3.76 H 2 A 1.89,1.89 0 0 0 0,5.51 v 10.54 a 1.89,1.89 0 0 0 2,1.76 h 16 a 1.89,1.89 0 0 0 2,-1.76 V 5.51 A 1.89,1.89 0 0 0 18,3.75 H 15.63 A 2,2 0 0 1 14.25,3.19 L 13.58,2.55 A 2,2 0 0 0 12.2,2 H 7.8 A 2,2 0 0 0 6.42,2.56 Z"
         clip-rule="evenodd"
         id="path2-3" /></clipPath></defs><sodipodi:namedview
     id="namedview6"
     pagecolor="#ffffff"
     bordercolor="#000000"
     borderopacity="0.25"
     inkscape:showpageshadow="2"
     inkscape:pageopacity="0.0"
     inkscape:pagecheckerboard="0"
     inkscape:deskcolor="#d1d1d1"
     showgrid="false"
     inkscape:zoom="21.610951"
     inkscape:cx="-0.90232031"
     inkscape:cy="14.737898"
     inkscape:window-width="2560"
     inkscape:window-height="1381"
     inkscape:window-x="0"
     inkscape:window-y="32"
     inkscape:window-maximized="1"
     inkscape:current-layer="svg4" /><g
     id="g248"
     transform="translate(-21.515069,-7.9788424)" /><path
     d="M 7.9591928,6.0358062 11.400611,2.5590202 13.44098,4.5993875 9.9070634,7.9823168 13.44098,11.400611 11.400611,13.440979 7.9836772,9.9057027 4.5993879,13.440979 2.5590205,11.400611 6.0766139,7.9999999 2.5590205,4.5993875 4.5993879,2.5590202 Z"
     fill="#666666"
     overflow="visible"
     style="color:#bebebe;stroke-width:1.36024;marker:none;fill:#5e6167;fill-opacity:1"
     id="path3552" /></svg>
