<?xml version="1.0" encoding="UTF-8" standalone="no"?>
<svg
   height="16px"
   viewBox="0 0 16 16"
   width="16px"
   version="1.1"
   id="svg8"
   sodipodi:docname="pause.svg"
   inkscape:version="1.2.2 (b0a8486541, 2022-12-01)"
   xmlns:inkscape="http://www.inkscape.org/namespaces/inkscape"
   xmlns:sodipodi="http://sodipodi.sourceforge.net/DTD/sodipodi-0.dtd"
   xmlns="http://www.w3.org/2000/svg"
   xmlns:svg="http://www.w3.org/2000/svg">
  <defs
     id="defs12" />
  <sodipodi:namedview
     id="namedview10"
     pagecolor="#ffffff"
     bordercolor="#000000"
     borderopacity="0.25"
     inkscape:showpageshadow="2"
     inkscape:pageopacity="0.0"
     inkscape:pagecheckerboard="0"
     inkscape:deskcolor="#d1d1d1"
     showgrid="false"
     inkscape:zoom="14.75"
     inkscape:cx="13.694915"
     inkscape:cy="13.016949"
     inkscape:window-width="1500"
     inkscape:window-height="902"
     inkscape:window-x="36"
     inkscape:window-y="26"
     inkscape:window-maximized="1"
     inkscape:current-layer="svg8" />
  <g
     fill="#222222"
     id="g6"
     style="fill:#a39090;stroke:#333333;stroke-width:0.2;stroke-dasharray:none;opacity:0.85;fill-opacity:1">
    <path
       d="m 13.003906 1 h -3 c -0.554687 0 -1 0.449219 -1 1 v 12 c 0 0.550781 0.445313 1 1 1 h 3 c 0.550782 0 1 -0.449219 1 -1 v -12 c 0 -0.550781 -0.449218 -1 -1 -1 z m 0 0"
       id="path2"
       style="fill:#a39090;stroke:#333333;stroke-width:0.2;stroke-dasharray:none;fill-opacity:1" />
    <path
       d="m 6.003906 1 h -3 c -0.554687 0 -1 0.449219 -1 1 v 12 c 0 0.550781 0.445313 1 1 1 h 3 c 0.550782 0 1 -0.449219 1 -1 v -12 c 0 -0.550781 -0.449218 -1 -1 -1 z m 0 0"
       id="path4"
       style="fill:#a39090;stroke:#333333;stroke-width:0.2;stroke-dasharray:none;fill-opacity:1" />
  </g>
</svg>
