<?xml version="1.0" encoding="iso-8859-1"?>
<!-- Uploaded to: SVG Repo, www.svgrepo.com, Generator: SVG Repo Mixer Tools -->
<!DOCTYPE svg PUBLIC "-//W3C//DTD SVG 1.1//EN" "http://www.w3.org/Graphics/SVG/1.1/DTD/svg11.dtd">
<svg fill="#000000" version="1.1" id="Capa_1" xmlns="http://www.w3.org/2000/svg" xmlns:xlink="http://www.w3.org/1999/xlink" 
	 width="800px" height="800px" viewBox="0 0 36.063 36.062"
	 xml:space="preserve">
<g>
	<g>
		<polygon points="12.16,7.863 12.16,13.674 17.192,10.768 		"/>
		<polygon points="23.901,7.863 18.87,10.768 23.903,13.674 		"/>
		<polygon points="11.322,20.937 11.322,15.126 6.29,18.031 		"/>
		<polygon points="12.161,28.199 17.192,25.295 12.16,22.389 		"/>
		<polygon points="24.741,15.126 24.741,20.937 29.772,18.031 		"/>
		<polygon points="23.903,28.199 23.903,22.389 18.87,25.295 		"/>
		<polygon points="31.831,5.871 26.02,5.871 28.926,10.902 		"/>
		<polygon points="10.042,5.871 4.232,5.871 7.136,10.902 		"/>
		<polygon points="32.557,17.192 35.462,12.16 29.653,12.16 		"/>
		<polygon points="6.41,12.16 0.6,12.16 3.505,17.192 		"/>
		<polygon points="11.494,5.032 17.304,5.032 14.4,0 		"/>
		<polygon points="18.758,5.032 24.569,5.032 21.663,0 		"/>
		<polygon points="3.505,18.87 0.6,23.902 6.41,23.902 		"/>
		<polygon points="29.653,23.902 35.462,23.902 32.557,18.87 		"/>
		<polygon points="4.232,30.191 10.042,30.191 7.136,25.16 		"/>
		<polygon points="26.02,30.191 31.831,30.191 28.926,25.16 		"/>
		<polygon points="21.663,36.062 24.569,31.03 18.758,31.03 		"/>
		<polygon points="14.4,36.062 17.304,31.03 11.494,31.03 		"/>
	</g>
</g>
</svg>